<svg width="54" height="58" viewBox="0 0 54 58" fill="none" xmlns="http://www.w3.org/2000/svg">
<circle cx="42.5" cy="11.5" r="11.5" fill="#D1D1FF"/>
<path d="M18.0432 27.7049L13.7212 32.7467C13.2861 33.3083 12.442 33.3458 11.9623 32.8129L9.50338 30.0742C9.0797 29.6038 9.11827 28.8792 9.58866 28.4556C10.0591 28.0319 10.7836 28.0705 11.2073 28.5409L12.7956 30.3094L16.304 26.216C16.7152 25.7359 17.4376 25.6794 17.9183 26.0906C18.3985 26.5018 18.4544 27.2242 18.0432 27.7049ZM10.178 39.7759L3.78046 50.8551C3.22207 51.8187 1.97276 52.156 1.00754 51.5987C0.0618632 51.0529 -0.281968 49.8329 0.251975 48.8492L6.66093 37.7455C4.9711 36.2925 3.80979 34.3871 3.25575 32.3187C1.70063 26.5148 5.14492 20.5496 10.9488 18.9945C16.7526 17.4394 22.7178 20.8831 24.2729 26.6875C25.828 32.4914 22.3838 38.4566 16.5799 40.0117C14.512 40.5657 12.2812 40.513 10.178 39.7759ZM13.7646 37.2931C18.0666 37.2931 21.5543 33.8053 21.5543 29.5034C21.5543 25.2014 18.0666 21.7136 13.7646 21.7136C9.46264 21.7136 5.9749 25.2014 5.9749 29.5034C5.9749 33.8053 9.46264 37.2931 13.7646 37.2931ZM20.5478 40.1464H24.1094C24.2762 40.1464 24.4125 40.01 24.4125 39.8433V35.8466C23.387 37.5685 21.978 38.9954 20.3099 40.0312C20.3658 40.1013 20.4517 40.1464 20.5478 40.1464ZM38.9518 23.486V39.8433C38.9518 40.01 39.0881 40.1464 39.2549 40.1464H42.8165C42.9832 40.1464 43.1196 40.01 43.1196 39.8433V23.486C43.1196 23.3193 42.9832 23.1829 42.8165 23.1829H39.2549C39.0881 23.1829 38.9518 23.3193 38.9518 23.486ZM26.7835 26.2921C26.6167 26.2921 26.4804 26.4284 26.4804 26.5952C26.4804 31.0112 26.4804 35.4273 26.4804 39.8433C26.4804 40.01 26.6167 40.1464 26.7835 40.1464C27.9709 40.1464 29.1583 40.1464 30.3451 40.1464C30.5119 40.1464 30.6482 40.01 30.6482 39.8433C30.6482 35.4273 30.6482 31.0112 30.6482 26.5952C30.6482 26.4284 30.5119 26.2921 30.3451 26.2921C29.1583 26.2921 27.9709 26.2921 26.7835 26.2921ZM33.0192 29.4012C32.8524 29.4012 32.7161 29.5376 32.7161 29.7043C32.7161 33.084 32.7161 36.4636 32.7161 39.8433C32.7161 40.01 32.8524 40.1464 33.0192 40.1464C34.2066 40.1464 35.3939 40.1464 36.5813 40.1464C36.7481 40.1464 36.8844 40.01 36.8844 39.8433C36.8844 36.4636 36.8844 33.084 36.8844 29.7043C36.8844 29.5376 36.7481 29.4012 36.5813 29.4012C35.3939 29.4012 34.2066 29.4012 33.0192 29.4012ZM28.9019 20.9608L28.9013 20.9619C28.6194 20.8218 28.2675 20.8685 28.0317 21.1026L24.9552 24.171C25.1893 24.6642 25.3924 25.1748 25.5613 25.7L28.7123 22.5577L34.4629 25.4252C34.7774 25.5816 35.149 25.4991 35.3701 25.2459L40.4987 20.1308V21.4176C40.4987 21.8359 40.8377 22.1753 41.2565 22.1753C41.6747 22.1753 42.0142 21.8364 42.0142 21.4176V18.3085C42.0142 17.8902 41.6753 17.5507 41.2565 17.5507H38.1473C37.7291 17.5507 37.3896 17.8902 37.3896 18.3085C37.3896 18.7267 37.7291 19.0662 38.1473 19.0662H39.427L34.6525 23.8282L28.9019 20.9608ZM38.0104 53.8986H13.0411C12.1329 53.8986 11.3904 54.6416 11.3904 55.5493C11.3904 56.4569 12.1334 57.2 13.0411 57.2H38.0099C38.9175 57.2 39.6606 56.4569 39.6606 55.5493C39.6606 54.6416 38.9181 53.8986 38.0104 53.8986ZM19.4234 48.7308L17.6277 52.3836H33.4244L31.6286 48.7308H19.4234ZM47.7263 12H3.32473C2.07434 12 1.05099 13.0233 1.05099 14.2737V44.4342L4.0477 39.242V37.2018C3.00208 35.8814 2.2324 34.3539 1.79243 32.7108C0.939639 29.5289 1.38396 26.1579 3.03087 23.3057C3.3356 22.7783 3.67563 22.2775 4.04825 21.8065V14.9967H47.0038V44.2186H9.36215L7.63159 47.2153H47.7263C48.9772 47.2153 50 46.192 50 44.9416V14.2737C50.0005 13.0233 48.9772 12 47.7263 12Z" fill="#4478D1"/>
</svg>
