<?xml version="1.0" encoding="UTF-8"?>
<svg xmlns="http://www.w3.org/2000/svg" width="65" height="62" viewBox="0 0 65 62" fill="none">
  <circle cx="54" cy="11" r="11" fill="#D1D1FF"></circle>
  <path d="M59.9985 17.478C59.5532 18.6242 58.6964 19.0087 57.5099 18.9881C54.8938 18.9454 52.2763 18.9778 49.6602 18.9734C48.1031 18.9719 47.4015 18.2883 47.3458 16.7399C47.3063 15.6409 46.4596 14.7937 45.26 14.6641C45.0286 14.639 44.7913 14.6449 44.5584 14.6449C34.8543 14.6449 25.1487 14.6405 15.4446 14.6538C14.948 14.6538 14.4192 14.7156 13.9637 14.8954C13.1141 15.2313 12.6512 15.8869 12.6527 16.8548C12.6586 27.01 12.6556 37.1637 12.6586 47.3189C12.6586 48.5167 13.4891 49.3903 14.7297 49.5229C14.885 49.5391 15.0417 49.5406 15.1985 49.5406C25.0593 49.5406 34.9202 49.542 44.781 49.5376C45.071 49.5376 45.3684 49.5096 45.6467 49.4374C46.7878 49.1398 47.3488 48.4047 47.3488 47.229C47.3502 39.0583 47.3488 30.8876 47.3546 22.7169C47.3546 22.3678 47.3751 22.0053 47.4674 21.6709C47.6886 20.8783 48.4547 20.3317 49.2691 20.3288C50.0806 20.3258 50.854 20.8724 51.0781 21.6635C51.1718 21.9965 51.1967 22.3604 51.1967 22.7096C51.2026 29.958 51.2011 37.205 51.2011 44.4534C51.2011 44.6832 51.2011 44.9145 51.2011 45.2121C51.5468 45.2121 51.8339 45.2121 52.121 45.2121C53.9168 45.2121 55.7155 45.2475 57.5099 45.2003C58.6949 45.1694 59.5547 45.5642 60 46.7104V47.6533C59.5108 48.7642 58.6553 49.134 57.4703 49.0956C55.4607 49.0323 53.4481 49.0868 51.4384 49.0706C51.0883 49.0677 50.936 49.1796 50.8086 49.5111C50.1758 51.1582 49.0025 52.2882 47.381 52.9261C46.9752 53.0852 46.8742 53.2856 46.8786 53.6907C46.8976 55.5176 46.8947 57.343 46.883 59.1698C46.8771 60.123 46.36 60.8346 45.531 61.0865C44.2347 61.4813 43.0731 60.5591 43.0497 59.074C43.0248 57.4048 43.0438 55.7356 43.0423 54.0664C43.0423 53.8602 43.0248 53.6539 43.0145 53.4536H39.398C39.398 53.6981 39.398 53.9103 39.398 54.1224C39.398 55.7135 39.4009 57.3047 39.3951 58.8943C39.3951 59.1875 39.3921 59.4895 39.3203 59.7694C39.0962 60.6327 38.2452 61.2368 37.3898 61.1779C36.4406 61.113 35.6452 60.4176 35.6115 59.463C35.55 57.7172 35.5764 55.9684 35.5661 54.2211C35.5661 53.9721 35.5661 53.7246 35.5661 53.4594H31.9115C31.9115 53.7143 31.9115 53.9265 31.9115 54.1401C31.9115 55.7312 31.9159 57.3223 31.9086 58.912C31.9086 59.2052 31.9027 59.5072 31.8295 59.7871C31.6025 60.6607 30.6987 61.2707 29.8272 61.169C28.8663 61.057 28.1368 60.3484 28.1148 59.3849C28.0753 57.6376 28.0958 55.8888 28.0899 54.1416C28.0899 53.9132 28.0899 53.6849 28.0899 53.4653H24.4353C24.4353 53.729 24.4353 53.9441 24.4353 54.1592C24.4353 55.7297 24.4427 57.3017 24.4295 58.8722C24.4265 59.2214 24.4016 59.5867 24.2947 59.9153C24.0267 60.7403 23.1493 61.2736 22.3217 61.1661C21.3622 61.0423 20.6416 60.3263 20.6225 59.3657C20.5888 57.5993 20.6064 55.8314 20.6035 54.0635C20.6035 53.8587 20.6035 53.6539 20.6035 53.4521H16.9591C16.9591 53.6996 16.9591 53.9103 16.9591 54.1224C16.9591 55.7135 16.9694 57.3047 16.9518 58.8943C16.9474 59.2611 16.9064 59.6486 16.7804 59.9889C16.4787 60.8081 15.5837 61.2942 14.7576 61.1528C13.8025 60.9893 13.139 60.2644 13.1273 59.2862C13.1053 57.4004 13.1082 55.5161 13.1244 53.6303C13.1273 53.2679 13.0394 53.0823 12.6776 52.9438C11.0063 52.3015 9.80958 51.1479 9.17533 49.4536C9.04936 49.1192 8.8692 49.0706 8.56599 49.0721C6.55486 49.0824 4.54226 49.0308 2.53405 49.0942C1.34905 49.1325 0.492162 48.7627 0.00439271 47.6519V46.709C0.449684 45.5642 1.30658 45.1635 2.49304 45.1989C4.11161 45.2475 5.73165 45.2107 7.35169 45.2107C7.81456 45.2107 8.27743 45.2107 8.77106 45.2107V18.9748H8.11191C6.23846 18.9748 4.36356 18.9395 2.49158 18.9881C1.30511 19.019 0.448219 18.6227 0.00292794 17.478V16.5351C0.495091 15.4302 1.34612 15.053 2.53405 15.0943C4.52322 15.162 6.51677 15.1046 8.50886 15.1193C8.86041 15.1223 9.05669 15.056 9.19877 14.6803C9.82276 13.0288 11.0048 11.9032 12.6234 11.2623C13.0291 11.1017 13.1288 10.9014 13.1244 10.4962C13.1053 8.66939 13.1082 6.84254 13.12 5.0157C13.1258 4.06398 13.6473 3.34797 14.4734 3.09899C15.7741 2.7071 16.9313 3.62789 16.9533 5.11441C16.9782 6.78361 16.9591 8.45282 16.9606 10.1235C16.9606 10.3298 16.9782 10.536 16.9884 10.7334H20.6035C20.6035 10.4859 20.6035 10.2738 20.6035 10.0631C20.6035 8.39389 20.6079 6.72321 20.6035 5.05401C20.602 4.45439 20.7705 3.92549 21.2231 3.52329C21.7973 3.01501 22.4667 2.85737 23.1844 3.13729C23.8919 3.41427 24.3738 3.94317 24.3943 4.72547C24.4383 6.47276 24.4265 8.22004 24.4368 9.9688C24.4368 10.2163 24.4368 10.4653 24.4368 10.7261H28.0914C28.0914 10.4682 28.0914 10.2561 28.0914 10.0439C28.0914 8.37473 28.0826 6.70406 28.0973 5.03485C28.1061 4.07429 28.5762 3.39511 29.3716 3.11962C30.5947 2.69532 31.8559 3.53507 31.891 4.86396C31.9379 6.61124 31.9086 8.36 31.9115 10.1073C31.9115 10.315 31.9115 10.5227 31.9115 10.7187H35.5661C35.5661 9.96144 35.5632 9.25574 35.5661 8.54858C35.572 7.29189 35.5427 6.03372 35.6028 4.77851C35.6526 3.7428 36.5182 2.98702 37.5084 3.00175C38.5323 3.01796 39.3599 3.82089 39.3833 4.88016C39.4112 6.09707 39.3936 7.31546 39.3951 8.53385C39.3951 9.25574 39.3951 9.97764 39.3951 10.7349H43.0423C43.0423 10.4874 43.0423 10.2767 43.0423 10.0646C43.0423 8.47344 43.0335 6.88232 43.0482 5.2912C43.0511 4.94204 43.0833 4.57667 43.1932 4.24961C43.4774 3.40837 44.3943 2.88537 45.2395 3.03122C46.1945 3.19475 46.861 3.9196 46.8727 4.89637C46.8947 6.74236 46.8961 8.58983 46.8727 10.4358C46.8669 10.8881 46.9767 11.1047 47.4279 11.2859C49.023 11.9238 50.1875 13.0464 50.7998 14.6788C50.9404 15.0545 51.1367 15.1208 51.4882 15.1193C53.4803 15.1046 55.4739 15.1591 57.463 15.0943C58.648 15.056 59.5034 15.4272 59.9956 16.5351V17.478H59.9985Z" fill="#4478D1"></path>
  <path d="M0.00146477 24.0782C0.478981 22.9615 1.33148 22.5534 2.51794 22.6271C3.52717 22.6904 4.54519 22.6271 5.55735 22.6447C6.71891 22.6639 7.52161 23.4285 7.54944 24.5128C7.57727 25.5971 6.80973 26.434 5.65402 26.4737C4.4075 26.5179 3.15951 26.4929 1.91153 26.4826C0.921342 26.4737 0.374982 25.8535 0 25.0196V24.0767L0.00146477 24.0782Z" fill="#4478D1"></path>
  <path d="M59.9985 25.0211C59.543 26.1585 58.6861 26.568 57.5011 26.5061C56.3732 26.4472 55.2366 26.5297 54.1131 26.4443C52.8944 26.3515 52.14 25.0933 52.5516 23.9383C52.827 23.1692 53.3866 22.6875 54.2083 22.6639C55.5515 22.6256 56.8976 22.6315 58.2423 22.6639C59.1578 22.6845 59.6294 23.3357 59.9985 24.0797V25.0226V25.0211Z" fill="#4478D1"></path>
  <path d="M0.00146397 39.1659C0.457008 38.03 1.3139 37.6189 2.4989 37.6808C3.62678 37.7412 4.76344 37.6573 5.88692 37.7427C7.10561 37.8355 7.85997 39.0937 7.44837 40.2487C7.17299 41.0178 6.61345 41.4995 5.79171 41.5231C4.44851 41.5614 3.10239 41.5555 1.75773 41.5231C0.842243 41.5025 0.370587 40.8513 0.00146397 40.1073V39.1644V39.1659Z" fill="#4478D1"></path>
  <path d="M59.9985 40.1088C59.521 41.2255 58.6685 41.6336 57.4821 41.5599C56.4728 41.4966 55.4548 41.5599 54.4427 41.5422C53.2811 41.5231 52.4784 40.7585 52.4506 39.6741C52.4227 38.5898 53.1903 37.753 54.346 37.7132C55.5925 37.669 56.8405 37.6941 58.0885 37.7044C59.0787 37.7132 59.625 38.332 60 39.1673V40.1102L59.9985 40.1088Z" fill="#4478D1"></path>
  <path d="M0.00146477 31.6228C0.468727 30.4957 1.31976 30.0891 2.50769 30.1598C3.61506 30.2261 4.72975 30.1539 5.83858 30.204C6.74821 30.2453 7.43079 30.9583 7.53039 31.86C7.63586 32.8043 7.11879 33.6338 6.237 33.9137C6.0539 33.9712 5.85616 34.0036 5.66427 34.005C4.41629 34.0139 3.16977 34.0095 1.92178 34.0109C0.922807 34.0109 0.388165 33.3878 0 32.5657V31.6228H0.00146477Z" fill="#4478D1"></path>
  <path d="M59.9985 32.5657C59.5313 33.6927 58.6802 34.1008 57.4908 34.0286C56.4025 33.9623 55.3083 34.033 54.2171 33.9918C53.2913 33.9564 52.5956 33.2787 52.474 32.3859C52.3451 31.4386 52.8285 30.6048 53.7059 30.2939C53.9036 30.2232 54.1233 30.1849 54.3328 30.1834C55.5808 30.1731 56.8273 30.1775 58.0753 30.1775C59.0743 30.1775 59.6089 30.8007 59.9971 31.6228V32.5657H59.9985Z" fill="#4478D1"></path>
  <path d="M15.5559 40.1043C15.5925 39.9659 15.6423 39.6535 15.7536 39.3648C17.8028 34.0654 19.8535 28.7661 21.9145 23.4712C22.5121 21.9361 24.1438 21.503 25.1677 22.6079C25.3991 22.8569 25.5647 23.1913 25.6906 23.514C27.7486 28.7897 29.7964 34.0684 31.8427 39.3486C32.266 40.4432 31.9833 41.4008 31.1074 41.9238C30.3266 42.3894 29.2823 42.2597 28.7256 41.5275C28.4034 41.1017 28.2276 40.5611 28.0021 40.0646C27.753 39.5165 27.6608 38.7607 27.2418 38.4631C26.8463 38.1817 26.1154 38.3703 25.531 38.3688C23.93 38.3644 22.3275 38.3777 20.7265 38.3585C20.3794 38.3541 20.2021 38.4587 20.082 38.7931C19.7964 39.5858 19.5049 40.3784 19.1504 41.1415C18.7608 41.9783 17.8732 42.3511 16.9899 42.1301C16.1345 41.915 15.5573 41.171 15.5544 40.1073L15.5559 40.1043ZM23.8655 29.4144H23.7278C23.0804 31.0924 22.433 32.769 21.7738 34.4765H25.8269C25.1575 32.7484 24.5115 31.0806 23.8655 29.4144Z" fill="#4478D1"></path>
  <path d="M40.1362 38.3467C40.4512 38.3467 40.7236 38.3291 40.9946 38.3497C41.9643 38.4234 42.7172 39.1894 42.7713 40.1412C42.827 41.1224 42.2045 41.9415 41.2436 42.1463C41.0913 42.1787 40.9345 42.2067 40.7807 42.2067C39.0435 42.2111 37.3063 42.2244 35.5705 42.2023C34.6214 42.1905 33.8934 41.6395 33.659 40.8336C33.4305 40.0513 33.681 39.185 34.3548 38.7445C34.6814 38.5309 35.1018 38.4454 35.4914 38.3497C35.7082 38.2966 35.9484 38.3394 36.215 38.3394V25.8402C35.9133 25.8402 35.6438 25.8564 35.3772 25.8373C34.3782 25.7666 33.6297 24.9916 33.5872 23.9987C33.5462 23.0248 34.1892 22.2116 35.1619 22.0319C35.3904 21.9891 35.6277 21.9818 35.8606 21.9803C37.422 21.9759 38.9835 21.9744 40.5449 21.9803C41.9101 21.9847 42.7831 22.7493 42.7787 23.925C42.7743 25.0889 41.932 25.8285 40.5918 25.8476C40.4555 25.8491 40.3208 25.8476 40.1392 25.8476V38.3467H40.1362Z" fill="#4478D1"></path>
  <path d="M23.8655 29.4144C24.5115 31.0806 25.156 32.7484 25.8269 34.4765H21.7738C22.433 32.769 23.0804 31.0924 23.7278 29.4173H23.8655L23.8655 29.4144Z" fill="white"></path>
</svg>
