<svg width="62" height="58" viewBox="0 0 62 58" fill="none" xmlns="http://www.w3.org/2000/svg">
<circle cx="50.5" cy="11.5" r="11.5" fill="#D1D1FF"/>
<path d="M39.9388 55.9837C39.9388 56.9113 39.1802 57.5 38.2527 57.5H12.5C11.5724 57.5 11 56.927 11 56C11 55.0724 11.5724 54.5 12.5 54.5L38.2527 54.6298C39.1797 54.6298 39.9388 55.0562 39.9388 55.9837ZM19.2829 48.9865L17.4165 52.7826H33.5841L31.7176 48.9865H19.2829ZM6.58155 29.4855C6.58155 28.3889 7.47078 27.4997 8.56734 27.4997C9.39556 27.4997 10.1055 28.0072 10.4036 28.728H14.5917V28.1962C14.5917 27.829 14.8924 27.5283 15.2595 27.5283H16.4759C17.2118 27.5283 17.8398 27.1088 18.1216 26.4291C18.4029 25.7493 18.2555 25.0086 17.7356 24.4881L16.8755 23.628C16.6158 23.3683 16.6158 22.9434 16.8755 22.6837L17.16 22.3992L16.1212 21.2794H12.4234C12.1259 22.0002 11.4159 22.5077 10.5871 22.5077C9.49058 22.5077 8.60135 21.6185 8.60135 20.5219C8.60135 19.4253 9.49058 18.5361 10.5871 18.5361C11.4154 18.5361 12.1253 19.0436 12.4228 19.7644L16.4484 19.766C16.6509 19.766 16.8528 19.847 17.0018 20.0068L18.2285 21.3291L18.6977 20.8599C18.9574 20.6002 19.3823 20.6002 19.642 20.8599L20.5021 21.72C21.0225 22.2404 21.7633 22.3878 22.443 22.106C23.1228 21.8247 23.5423 21.1962 23.5423 20.4603V19.2439C23.5423 18.8768 23.843 18.5761 24.2102 18.5761H26.7882C27.1554 18.5761 27.4561 18.8768 27.4561 19.2439V20.4603C27.4561 21.1962 27.8756 21.8242 28.5554 22.106C29.2351 22.3873 29.9759 22.2399 30.4963 21.72L31.3564 20.8599C31.6161 20.6002 32.041 20.6002 32.3007 20.8599L32.7699 21.3291L33.9976 20.0074C34.1467 19.8476 34.3486 19.7666 34.5511 19.7666L38.5766 19.7649C38.8747 19.0442 39.5841 18.5366 40.4123 18.5366C41.5089 18.5366 42.3981 19.4259 42.3981 20.5224C42.3981 21.619 41.5089 22.5082 40.4123 22.5082C39.5841 22.5082 38.8741 22.0007 38.5761 21.2799H34.8788L33.84 22.3997L34.1245 22.6842C34.3842 22.9439 34.3842 23.3688 34.1245 23.6285L33.2644 24.4886C32.7445 25.0091 32.5971 25.7498 32.8784 26.4296C33.1597 27.1093 33.7882 27.5289 34.5241 27.5289H35.7405C36.1076 27.5289 36.4083 27.8296 36.4083 28.1967V28.7285H40.5964C40.8945 28.0078 41.6039 27.5002 42.4327 27.5002C43.5292 27.5002 44.4184 28.3895 44.4184 29.486C44.4184 30.5826 43.5292 31.4718 42.4327 31.4718C41.6044 31.4718 40.8945 30.9643 40.5964 30.2435H36.4083V30.7753C36.4083 31.1425 36.1076 31.4432 35.7405 31.4432H34.5241C33.7882 31.4432 33.1602 31.8627 32.8784 32.5425C32.5971 33.2222 32.7445 33.963 33.2644 34.4834L34.1245 35.3435C34.3842 35.6032 34.3842 36.0281 34.1245 36.2878L33.8405 36.5718L34.8793 37.6916H38.5766C38.8747 36.9708 39.5841 36.4633 40.4129 36.4633C41.5094 36.4633 42.3986 37.3525 42.3986 38.4491C42.3986 39.5456 41.5094 40.4349 40.4129 40.4349C39.5846 40.4349 38.8747 39.9273 38.5766 39.2066L34.5511 39.2049C34.3486 39.2049 34.1467 39.124 33.9976 38.9641L32.771 37.6419L32.3018 38.1111C32.0421 38.3708 31.6172 38.3708 31.3575 38.1111L30.4974 37.251C29.9769 36.7311 29.2362 36.5831 28.5564 36.865C27.8767 37.1463 27.4572 37.7747 27.4572 38.5106V39.727C27.4572 40.0942 27.1564 40.3949 26.7893 40.3949H24.2112C23.8441 40.3949 23.5434 40.0942 23.5434 39.727V38.5106C23.5434 37.7747 23.1239 37.1468 22.4441 36.865C21.7644 36.5837 21.0236 36.7311 20.5031 37.251L19.6431 38.1111C19.3834 38.3708 18.9584 38.3708 18.6988 38.1111L18.2296 37.6419L17.0029 38.9641C16.8539 39.124 16.652 39.2049 16.4495 39.2049L12.4234 39.2066C12.1253 39.9273 11.4159 40.4349 10.5871 40.4349C9.49058 40.4349 8.60135 39.5456 8.60135 38.4491C8.60135 37.3525 9.49058 36.4633 10.5871 36.4633C11.4154 36.4633 12.1253 36.9708 12.4234 37.6916H16.1207L17.1589 36.5718L16.8749 36.2878C16.6152 36.0281 16.6152 35.6032 16.8749 35.3435L17.735 34.4834C18.2549 33.9635 18.4023 33.2222 18.121 32.5425C17.8398 31.8627 17.2113 31.4432 16.4754 31.4432H15.259C14.8918 31.4432 14.5911 31.1425 14.5911 30.7753V30.2435H10.403C10.105 30.9643 9.39556 31.4718 8.5668 31.4718C7.47024 31.4713 6.58155 30.582 6.58155 29.4855ZM20.7817 29.4855C20.7817 32.0916 22.8944 34.2038 25.5 34.2038C28.1061 34.2038 30.2183 32.0911 30.2183 29.4855C30.2183 26.8793 28.1056 24.7672 25.5 24.7672C22.8939 24.7672 20.7817 26.8793 20.7817 29.4855ZM50.5 13.8227V45.1488C50.5 46.4262 49.4547 47.4715 48.1773 47.4715H2.82269C1.54527 47.4715 0.5 46.4262 0.5 45.1488V13.8227C0.5 12.5453 1.54527 11.5 2.82269 11.5H48.1768C49.4547 11.4995 50.5 12.5453 50.5 13.8227ZM47 15H4V44H47V15Z" fill="#4478D1"/>
</svg>
