<svg width="53" height="58" viewBox="0 0 53 58" fill="none" xmlns="http://www.w3.org/2000/svg">
<circle cx="41.5" cy="11.5" r="11.5" fill="#D1D1FF"/>
<path d="M44.1406 39.9422V33.4844C44.1406 33.1932 44.0425 32.9311 43.8526 32.7412C43.6626 32.5513 43.4006 32.4531 43.1094 32.4531H33.0312C32.7401 32.4531 32.478 32.5513 32.2881 32.7412C32.0982 32.9311 32 33.1932 32 33.4844V40.3438H10.2188C6.13972 40.3438 2.8125 37.0198 2.8125 32.8594C2.8125 28.7803 6.13641 25.4531 10.2969 25.4531C10.4432 25.4531 10.5764 25.4284 10.7011 25.373C10.8248 25.318 10.9276 25.2384 11.0205 25.1455C11.2267 24.9393 11.3281 24.64 11.3281 24.4219V24.4147L11.3277 24.4076C11.0232 19.0778 15.445 13.8906 21.4688 13.8906C25.6594 13.8906 29.4747 16.5586 31.001 20.5272L31.001 20.5273L31.0023 20.5303C31.2031 21.0325 31.8079 21.3523 32.3428 21.1384L32.3445 21.1377C36.0416 19.6287 40.2716 21.3599 41.9395 24.9837C42.0615 25.3282 42.3937 25.5163 42.7362 25.6019L42.7512 25.6056L42.7665 25.6075C46.4667 26.0606 49.2642 29.2325 49.2656 33.0128C49.1914 36.152 47.1424 38.9392 44.1406 39.9422ZM51.25 32.8594C51.25 28.248 47.9417 24.3469 43.5107 23.4954C41.4286 19.4639 36.7796 17.5043 32.4655 18.7298C30.5045 14.5312 26.1784 11.75 21.3906 11.75C14.6122 11.75 9.39223 17.2777 9.19253 23.4165C4.48482 23.9982 0.75 28.0358 0.75 32.8594C0.75 38.0728 4.99982 42.4063 10.2188 42.4063H24.9688V45.8906H23.1094C22.8182 45.8906 22.5561 45.9888 22.3662 46.1787C22.1763 46.3686 22.0781 46.6307 22.0781 46.9219V47.4531H11.0781C10.7869 47.4531 10.5249 47.5513 10.3349 47.7412C10.145 47.9311 10.0469 48.1932 10.0469 48.4844C10.0469 48.7756 10.145 49.0376 10.3349 49.2276C10.5249 49.4175 10.7869 49.5156 11.0781 49.5156H22.0781V50.125C22.0781 50.4162 22.1763 50.6783 22.3662 50.8682C22.5561 51.0581 22.8182 51.1562 23.1094 51.1562H28.8125C29.1037 51.1562 29.3658 51.0581 29.5557 50.8682C29.7456 50.6783 29.8437 50.4162 29.8437 50.125V49.5156H32V55.9844C32 56.2756 32.0982 56.5376 32.2881 56.7276C32.478 56.9175 32.7401 57.0156 33.0312 57.0156H43.1094C43.4006 57.0156 43.6626 56.9175 43.8526 56.7276C44.0425 56.5376 44.1406 56.2756 44.1406 55.9844V42.1159C48.2916 41.0088 51.25 37.284 51.25 32.8594ZM27.8594 49.0938H24.2188V47.9531H27.8594V49.0938ZM29.9219 47.4531V46.9219C29.9219 46.6307 29.8237 46.3686 29.6338 46.1787C29.4439 45.9888 29.1818 45.8906 28.8906 45.8906H27.0312V42.4063H32V47.4531H29.9219ZM42.0781 54.9531H34.0625V34.5156H42.0781V54.9531Z" fill="#4478D1" stroke="#4478D1" stroke-width="0.5"/>
<path d="M42.4846 26.9993C42.094 26.9211 41.7034 27.2336 41.6252 27.7024C41.5471 28.093 41.8596 28.4836 42.3284 28.5618C44.5159 28.7961 46.0784 30.6711 46.0784 32.8586C46.0784 33.3274 46.3909 33.6399 46.8596 33.6399C47.3284 33.6399 47.6409 33.3274 47.6409 32.8586C47.6409 29.8899 45.4534 27.3899 42.4846 26.9993Z" fill="#4478D1"/>
<path d="M35.0625 22.0791C34.5937 22.0791 34.2812 22.3916 34.2812 22.8604C34.2812 23.3291 34.5937 23.6416 35.0625 23.6416C36.7813 23.6416 38.3438 24.6572 39.0469 26.2197C39.2031 26.6104 39.6719 26.7666 40.0625 26.6104C40.4531 26.4541 40.6094 25.9854 40.4531 25.5947C39.5156 23.4072 37.4062 22.0791 35.0625 22.0791Z" fill="#4478D1"/>
<path d="M21.4694 15.4385C16.3913 15.4385 12.6413 19.8135 12.8756 24.2666C12.8756 24.6572 13.2663 24.9697 13.6569 24.9697C13.6569 24.9697 13.6569 24.9697 13.735 24.9697C14.2038 24.9697 14.5163 24.5791 14.4381 24.1104C14.2819 20.5166 17.3288 16.9229 21.4694 16.9229C21.9381 16.9229 22.2506 16.6104 22.2506 16.1416C22.2506 15.751 21.86 15.4385 21.4694 15.4385Z" fill="#4478D1"/>
<path d="M10.2207 28.5625C10.6895 28.5625 11.002 28.25 11.002 27.7812C11.002 27.3125 10.6895 27 10.2207 27C6.93945 27 4.36133 29.6563 4.36133 32.8594C4.36133 36.1406 7.01758 38.7969 10.2207 38.7969C10.6895 38.7969 11.002 38.4844 11.002 38.0156C11.002 37.5469 10.6895 37.2344 10.2207 37.2344C7.79883 37.2344 5.92383 35.2812 5.92383 32.8594C5.92383 30.5156 7.87695 28.5625 10.2207 28.5625Z" fill="#4478D1"/>
<path d="M35.9199 37.7041H40.1387C40.6074 37.7041 40.9199 37.3916 40.9199 36.9229C40.9199 36.4541 40.6074 36.1416 40.1387 36.1416H35.9199C35.4512 36.1416 35.1387 36.4541 35.1387 36.9229C35.1387 37.3135 35.5293 37.7041 35.9199 37.7041Z" fill="#4478D1"/>
<path d="M35.9199 41.2197H40.1387C40.6074 41.2197 40.9199 40.9072 40.9199 40.4385C40.9199 39.9697 40.6074 39.6572 40.1387 39.6572H35.9199C35.4512 39.6572 35.1387 39.9697 35.1387 40.4385C35.1387 40.9072 35.5293 41.2197 35.9199 41.2197Z" fill="#4478D1"/>
<path d="M35.9199 44.8125H40.1387C40.6074 44.8125 40.9199 44.5 40.9199 44.0312C40.9199 43.5625 40.6074 43.25 40.1387 43.25H35.9199C35.4512 43.25 35.1387 43.5625 35.1387 44.0312C35.1387 44.4219 35.5293 44.8125 35.9199 44.8125Z" fill="#4478D1"/>
<path d="M38.0293 53.4053C39.5918 53.4053 40.9199 52.0771 40.9199 50.5146C40.9199 48.9521 39.5918 47.624 38.0293 47.624C36.4668 47.624 35.1387 48.9521 35.1387 50.5146C35.1387 52.0771 36.4668 53.4053 38.0293 53.4053ZM38.0293 49.1865C38.7324 49.1865 39.3574 49.8115 39.3574 50.5146C39.3574 51.2178 38.7324 51.8428 38.0293 51.8428C37.3262 51.8428 36.7012 51.2178 36.7012 50.5146C36.7012 49.7334 37.3262 49.1865 38.0293 49.1865Z" fill="#4478D1"/>
</svg>
