<svg width="51" height="58" viewBox="0 0 51 58" fill="none" xmlns="http://www.w3.org/2000/svg">
<circle cx="38.9941" cy="11.5" r="11.5" fill="#D1D1FF"/>
<path d="M25 57.9995H21.4286C20.4425 57.9995 19.6429 57.1999 19.6429 56.2138V53.7376C17.6941 53.2389 15.8455 52.4751 14.1209 51.4559L12.3736 53.2032C11.6761 53.9006 10.5461 53.9006 9.84839 53.2032L4.79732 48.1521C4.09982 47.4546 4.09982 46.3246 4.79732 45.627L6.54375 43.8797C5.52536 42.1541 4.76161 40.3065 4.26196 38.3578H1.78571C0.799643 38.3578 0 37.5581 0 36.5721V29.4284C0 28.4423 0.799643 27.6427 1.78571 27.6427H4.26196C4.76071 25.6939 5.52446 23.8454 6.54375 22.1208L4.79643 20.3735C4.09893 19.676 4.09893 18.546 4.79643 17.8483L9.8475 12.7973C10.545 12.0998 11.675 12.0998 12.3727 12.7973L14.12 14.5437C15.8455 13.5253 17.6932 12.7616 19.642 12.2619V9.7857C19.642 8.79964 20.4416 8 21.4277 8H28.5714C29.5575 8 30.3571 8.79964 30.3571 9.7857V13.6971C30.3571 14.6832 29.5575 15.4828 28.5714 15.4828C27.5854 15.4828 26.7857 14.6832 26.7857 13.6971V11.5714H23.2134V13.6971C23.2134 14.5585 22.5988 15.2971 21.7513 15.4531C19.2636 15.9117 16.953 16.8665 14.8848 18.2913C14.175 18.7795 13.2184 18.6924 12.6089 18.0829L11.1102 16.5849L8.58411 19.111L10.083 20.6099C10.6925 21.2193 10.7796 22.1767 10.2905 22.8856C8.86571 24.9529 7.91107 27.2636 7.45321 29.751C7.29804 30.5985 6.55875 31.2141 5.69714 31.2141H3.57143V34.7864H5.69714C6.55857 34.7864 7.29714 35.401 7.45321 36.2485C7.91179 38.7361 8.86661 41.0467 10.2914 43.1149C10.7796 43.8247 10.6925 44.7811 10.083 45.3905L8.585 46.8895L11.1111 49.4155L12.61 47.9166C13.2186 47.308 14.1768 47.22 14.8857 47.7091C16.953 49.1339 19.2638 50.0885 21.7513 50.5464C22.5988 50.7016 23.2143 51.4409 23.2143 52.3025V54.4281H25C25.9861 54.4281 26.7857 55.2278 26.7857 56.2138C26.7857 57.1999 25.9861 57.9995 25 57.9995Z" fill="#4478D1"/>
<path d="M25.0006 57.9997C24.0145 57.9997 23.2148 57.2 23.2148 56.214C23.2148 55.2279 24.0145 54.4283 25.0006 54.4283C36.8161 54.4283 46.4291 44.8153 46.4291 32.9999C46.4291 28.104 44.6461 23.3364 41.5368 19.9193C40.8732 19.1904 40.9265 18.0604 41.6563 17.3968C42.3852 16.7315 43.517 16.7874 44.1788 17.5163C47.8782 21.5821 50.0006 27.226 50.0006 32.9999C50.0006 46.7849 38.7857 57.9997 25.0006 57.9997Z" fill="#4478D1"/>
<path d="M25.0006 47.285C24.0145 47.285 23.2148 46.4854 23.2148 45.4993C23.2148 44.5133 24.0145 43.7136 25.0006 43.7136C30.9088 43.7136 35.7148 38.9076 35.7148 32.9994C35.7148 27.0913 30.9088 22.2853 25.0006 22.2853C19.0923 22.2853 14.2863 27.0913 14.2863 32.9994C14.2863 33.9855 13.4866 34.7851 12.5006 34.7851C11.5145 34.7851 10.7148 33.9855 10.7148 32.9994C10.7148 25.1226 17.1236 18.7139 25.0006 18.7139C32.8775 18.7139 39.2863 25.1226 39.2863 32.9994C39.2863 40.8763 32.8775 47.285 25.0006 47.285Z" fill="#4478D1"/>
<path d="M24.9996 50.8569C24.5427 50.8569 24.0859 50.6824 23.7371 50.3336L20.1657 46.7623C19.4682 46.0648 19.4682 44.9348 20.1657 44.2371L23.7371 40.6657C24.4346 39.9682 25.5646 39.9682 26.2623 40.6657C26.96 41.3632 26.9598 42.4932 26.2623 43.1909L23.9534 45.4998L26.2623 47.8087C26.9598 48.5062 26.9598 49.6362 26.2623 50.3338C25.9134 50.6824 25.4566 50.8569 24.9996 50.8569Z" fill="#4478D1"/>
<path d="M41.0709 24.0711C40.0848 24.0711 39.2852 23.2714 39.2852 22.2854V16.9283C39.2852 15.9422 40.0848 15.1426 41.0709 15.1426H46.428C47.4141 15.1426 48.2137 15.9422 48.2137 16.9283C48.2137 17.9143 47.4141 18.714 46.428 18.714H42.8566V22.2854C42.8566 23.2714 42.0569 24.0711 41.0709 24.0711Z" fill="#4478D1"/>
<path d="M21.2028 35.2739H24.8176L25.3483 37H27L24.1729 28H21.7863L19 37H20.6806L21.2028 35.2739ZM22.9991 29.3257L24.4484 34.0122H21.5771L22.9991 29.3257Z" fill="#4478D1"/>
<path d="M30 28H28V37H30V28Z" fill="#4478D1"/>
</svg>
