<?xml version="1.0" encoding="UTF-8"?>
<svg xmlns="http://www.w3.org/2000/svg" width="40" height="42" viewBox="0 0 40 42" fill="none">
  <circle cx="20.5" cy="10.5" r="10.5" fill="#E9EBF8"></circle>
  <path d="M39.3156 21.3916H35.9316C37.3384 18.1977 37.1863 15.6122 36.654 13.8631C35.7414 10.7452 32.6616 7.36121 28.0989 7.36121C26.8821 7.36121 25.6654 7.58934 24.4106 8.04562C22.2433 8.8441 20.7985 9.71862 20.1521 10.1749C19.5057 9.71862 18.0989 8.8441 15.8935 8.04562C14.6388 7.58934 13.384 7.36121 12.2053 7.36121C7.64259 7.36121 4.56274 10.7452 3.65019 13.8631C3.11787 15.7262 2.92776 18.5399 4.71483 22.076H0.608365C0.26616 22.076 0 22.3422 0 22.6844C0 23.0266 0.26616 23.2928 0.608365 23.2928H5.43726C5.62738 23.635 5.85551 23.9772 6.12167 24.3194C10.076 30.0228 18.6692 36.2205 20.2281 36.6007V36.6388C20.2281 36.6388 20.2662 36.6388 20.3042 36.6007C20.3422 36.6007 20.3802 36.6007 20.4183 36.6007V36.5627C21.7491 35.9163 30 30.5931 34.3346 24.2814C34.7529 23.711 35.0951 23.1407 35.3992 22.5703H39.3916C39.7338 22.5703 40 22.3042 40 21.962C40 21.6198 39.6578 21.3916 39.3156 21.3916ZM33.2319 23.635C29.2015 29.5285 21.7871 34.2814 20.1901 35.308C18.5551 34.2814 11.1787 29.4905 7.11027 23.635C7.03422 23.5209 6.95818 23.4068 6.88213 23.2928H12.4715C12.6996 23.2928 12.9278 23.1787 13.0418 22.9506L15.5894 17.9315L19.5818 28.1597C19.6578 28.3878 19.924 28.5399 20.1521 28.5399C20.1521 28.5399 20.1521 28.5399 20.1901 28.5399C20.4563 28.5399 20.6844 28.3498 20.7605 28.0836L24.2586 16.1065L26.1217 22.1521C26.1977 22.3802 26.3878 22.5323 26.616 22.5703C26.8441 22.6084 27.0722 22.4943 27.2243 22.3042L28.7072 20.1369L29.962 22.2661C30.076 22.4563 30.2662 22.5703 30.4943 22.5703H33.9164C33.6882 22.9506 33.4601 23.2928 33.2319 23.635ZM34.6008 21.3916H30.8745L29.3156 18.73C29.2015 18.5399 29.0114 18.4258 28.7833 18.4258C28.5551 18.4258 28.365 18.5019 28.251 18.692L26.9582 20.5931L24.8669 13.7871C24.7909 13.5209 24.5247 13.3688 24.2586 13.3308C23.9924 13.3308 23.7262 13.5209 23.6502 13.7871L20.1141 25.9924L16.2738 16.1825C16.1977 15.9544 15.9696 15.8023 15.7414 15.8023C15.4753 15.8023 15.2852 15.9163 15.1711 16.1445L12.1673 22.038H6.12167C4.60076 19.2623 4.18251 16.6007 4.86692 14.2053C5.6654 11.5057 8.28897 8.61596 12.2433 8.61596C13.308 8.61596 14.4106 8.8441 15.5133 9.22432C18.289 10.2509 19.7719 11.4296 19.8099 11.4296C20.038 11.6198 20.3422 11.6198 20.5703 11.4296C20.5703 11.4296 22.0532 10.2509 24.8669 9.22432C25.9696 8.80607 27.0722 8.61596 28.1369 8.61596C32.0532 8.61596 34.7148 11.5057 35.5133 14.2053C36.1597 16.4106 35.8175 18.8441 34.6008 21.3916Z" fill="#A478D1"></path>
</svg>
