<?xml version="1.0" encoding="UTF-8"?>
<svg xmlns="http://www.w3.org/2000/svg" width="35" height="33" viewBox="0 0 35 33" fill="none">
  <circle cx="24.5" cy="10.5" r="10.5" fill="#E9EBF8"></circle>
  <path d="M27.125 8.49998C25.4678 6.32578 23.2072 4.68765 20.625 3.78998C17.626 2.74986 14.364 2.74986 11.365 3.78998C8.62782 4.75034 6.25653 6.53723 4.57889 8.90366C2.90125 11.2701 2.0001 14.0992 2 17V17.195V17.3C2.0622 20.3098 3.09294 23.2194 4.93932 25.5972C6.7857 27.975 9.34936 29.6942 12.25 30.5C14.306 31.0721 16.4655 31.1666 18.5636 30.7763C20.6616 30.386 22.6427 29.5212 24.3554 28.248C26.0681 26.9748 27.467 25.327 28.4453 23.4304C29.4236 21.5337 29.9554 19.4386 30 17.305V17.2C30 17.135 30 17.07 30 17.005C30.0099 13.9298 28.9987 10.9384 27.125 8.49998ZM16.5 7.75498L20.545 4.81998C22.7575 5.64307 24.7027 7.05572 26.17 8.90498L24.63 13.67L21.38 14.725L16.5 11.185V7.75498ZM11.455 4.81998L15.5 7.75498V11.185L10.62 14.725L7.365 13.67L5.825 8.90498C7.29418 7.05554 9.24103 5.64295 11.455 4.81998ZM10.295 24H5.04C3.79906 22.0657 3.09499 19.8361 3 17.54L5.45 15.76L7.025 14.615L8.665 15.145L10.3 15.68L12.16 21.41L11.22 22.705L10.295 24ZM19.23 29.595C17.1122 30.1349 14.8928 30.1349 12.775 29.595L11.135 24.545L11.26 24.375L13 22H19L19.375 22.5L20.875 24.54L19.23 29.595ZM26.96 24H21.705L20.765 22.705L19.825 21.41L21.685 15.68L23.32 15.145L24.955 14.615L29 17.54C28.905 19.8361 28.2009 22.0657 26.96 24Z" fill="#A478D1"></path>
</svg>
