<?xml version="1.0" encoding="UTF-8"?>
<svg xmlns="http://www.w3.org/2000/svg" width="44" height="51" viewBox="0 0 44 51" fill="none">
  <circle cx="31.5" cy="10.5" r="10.5" fill="#E9EBF8"></circle>
  <path d="M32.3723 7H30.0004H14.016H11.627C9.6418 7 8.01758 8.62422 8.01758 10.6094V47.3906C8.01758 49.3844 9.6418 51 11.627 51H32.3723C34.366 51 35.9816 49.3758 35.9816 47.3906V10.6094C35.9902 8.62422 34.366 7 32.3723 7ZM14.6434 8.25469H29.3816V8.95078C29.3816 9.83594 28.6598 10.5664 27.766 10.5664H16.2504C15.3652 10.5664 14.6348 9.84453 14.6348 8.95078V8.25469H14.6434ZM34.7355 47.3906C34.7355 48.6883 33.6785 49.7539 32.3723 49.7539H11.627C10.3293 49.7539 9.26367 48.6969 9.26367 47.3906V10.6094C9.26367 9.31172 10.3207 8.24609 11.627 8.24609H13.3887V8.94219C13.3887 10.5234 14.6777 11.8039 16.2504 11.8039H27.7574C29.3387 11.8039 30.6191 10.5148 30.6191 8.94219V8.24609H32.3637C33.6613 8.24609 34.727 9.30312 34.727 10.6094V47.3906H34.7355ZM26.1246 48.0523C26.1246 48.3961 25.841 48.6797 25.4973 48.6797H18.502C18.1582 48.6797 17.8746 48.3961 17.8746 48.0523C17.8746 47.7086 18.1582 47.425 18.502 47.425H25.4973C25.841 47.425 26.1246 47.7086 26.1246 48.0523Z" fill="#A478D1"></path>
  <path d="M21.9992 21.8499C18.0375 21.8499 14.8148 25.0726 14.8148 29.0343C14.8148 32.996 18.0375 36.2187 21.9992 36.2187C25.9609 36.2187 29.1836 32.996 29.1836 29.0343C29.1836 25.0726 25.9609 21.8499 21.9992 21.8499ZM21.9992 34.964C18.725 34.964 16.0695 32.2999 16.0695 29.0343C16.0695 25.7687 18.7336 23.1046 21.9992 23.1046C25.2734 23.1046 27.9289 25.7687 27.9289 29.0343C27.9289 32.2999 25.2734 34.964 21.9992 34.964ZM24.4141 30.3062C24.4141 31.3202 23.6234 32.1452 22.6266 32.2054V32.6093C22.6266 32.953 22.343 33.2366 21.9992 33.2366C21.6555 33.2366 21.3719 32.953 21.3719 32.6093V32.2054H20.8305C20.4867 32.2054 20.2031 31.9218 20.2031 31.578C20.2031 31.2343 20.4867 30.9507 20.8305 30.9507H22.5148C22.8758 30.9507 23.168 30.6585 23.168 30.2976C23.168 29.9366 22.8758 29.6444 22.5148 29.6444H21.4836C20.4351 29.6444 19.5844 28.7937 19.5844 27.7452C19.5844 26.7312 20.375 25.9062 21.3719 25.846V25.4421C21.3719 25.0983 21.6555 24.8147 21.9992 24.8147C22.343 24.8147 22.6266 25.0983 22.6266 25.4421V25.846H23.168C23.5117 25.846 23.7953 26.1296 23.7953 26.4733C23.7953 26.8171 23.5117 27.1007 23.168 27.1007H21.4836C21.1226 27.1007 20.8305 27.3929 20.8305 27.7538C20.8305 28.1147 21.1226 28.4069 21.4836 28.4069H22.5148C23.5633 28.4069 24.4141 29.2577 24.4141 30.3062ZM29.1836 38.0491C29.1836 38.3929 28.9 38.6765 28.5562 38.6765H16.9547L18.1836 39.9054C18.4242 40.146 18.4242 40.5499 18.1836 40.7905C18.0633 40.9108 17.9 40.971 17.7367 40.971C17.5734 40.971 17.4187 40.9108 17.2898 40.7905L14.9867 38.4874C14.8062 38.3069 14.7547 38.0405 14.8492 37.8085C14.9437 37.5765 15.1758 37.4218 15.425 37.4218H28.5562C28.9086 37.4218 29.1836 37.7054 29.1836 38.0491ZM14.8148 19.9507C14.8148 19.6069 15.0984 19.3233 15.4422 19.3233H27.0437L25.8148 18.0944C25.5742 17.8538 25.5742 17.4499 25.8148 17.2093C26.0555 16.9687 26.4594 16.9687 26.7 17.2093L29.0031 19.5124C29.1836 19.6929 29.2351 19.9593 29.1406 20.1913C29.0461 20.4233 28.8141 20.578 28.5648 20.578H15.4422C15.0984 20.578 14.8148 20.2944 14.8148 19.9507Z" fill="#A478D1"></path>
</svg>
