<?xml version="1.0" encoding="UTF-8"?>
<svg xmlns="http://www.w3.org/2000/svg" width="42" height="47" viewBox="0 0 42 47" fill="none">
  <circle cx="21.5" cy="10.5" r="10.5" fill="#E9EBF8"></circle>
  <path d="M28.5106 18.1712C28.1551 9.53945 15.8489 9.53455 15.4913 18.1712C15.4927 19.3154 15.7956 20.439 16.3695 21.4288C16.9435 22.4185 17.7682 23.2395 18.7605 23.809C16.659 24.3556 14.7597 25.4966 13.2903 27.0953C10.8577 29.6479 12.8837 34.148 16.4034 34.0461L27.5986 34.0462C31.1154 34.146 33.1472 29.6501 30.7112 27.0953C29.242 25.4966 27.3428 24.3556 25.2414 23.809C26.2337 23.2395 27.0584 22.4185 27.6324 21.4287C28.2063 20.4389 28.5092 19.3154 28.5106 18.1712ZM29.7369 27.9746C31.4065 29.6947 29.9881 32.8267 27.5985 32.7336L16.4033 32.7337C14.0161 32.8263 12.5931 29.6949 14.2648 27.9745C17.9779 23.625 26.0241 23.6245 29.7369 27.9746ZM22.0009 23.3686C20.623 23.367 19.302 22.8189 18.3277 21.8446C17.3534 20.8702 16.8053 19.5491 16.8038 18.1712C17.0652 11.2865 26.9377 11.2883 27.1981 18.1713C27.1966 19.5492 26.6485 20.8702 25.6742 21.8446C24.6999 22.8189 23.3789 23.3671 22.0009 23.3686Z" fill="#A478D1"></path>
  <path d="M7.16836 26.507H11.7688C11.9407 26.5038 12.1045 26.4332 12.2249 26.3105C12.3453 26.1878 12.4127 26.0227 12.4127 25.8508C12.4127 25.6788 12.3453 25.5138 12.2249 25.3911C12.1044 25.2684 11.9407 25.1978 11.7688 25.1945H7.16836C6.73921 25.197 6.31859 25.0747 5.95767 24.8425C5.59675 24.6103 5.31108 24.2782 5.13543 23.8867C4.95977 23.4951 4.9017 23.0609 4.96827 22.637C5.03485 22.213 5.22319 21.8175 5.51041 21.4987C6.50932 20.4519 7.75623 19.6741 9.13567 19.2373C10.5151 18.8005 11.9824 18.7189 13.4018 18.9999C13.5167 19.0223 13.6354 19.0132 13.7455 18.9736C13.8557 18.934 13.953 18.8654 14.0273 18.7749C14.1016 18.6845 14.15 18.5757 14.1675 18.46C14.185 18.3443 14.1708 18.226 14.1266 18.1177C14.1801 17.9987 14.197 17.8664 14.1751 17.7377C14.1532 17.6091 14.0935 17.4898 14.0036 17.3952C13.9137 17.3006 13.7977 17.2349 13.6703 17.2065C13.5429 17.1781 13.4099 17.1882 13.2883 17.2356C12.5193 17.5448 11.675 17.6156 10.8651 17.4389C10.0552 17.2622 9.31722 16.8461 8.74684 16.2446C8.17646 15.6432 7.80008 14.8841 7.66656 14.066C7.53305 13.2479 7.64856 12.4086 7.99811 11.657C8.34765 10.9054 8.91509 10.2762 9.62674 9.85118C10.3384 9.42614 11.1614 9.22488 11.9889 9.2735C12.8164 9.32213 13.6101 9.6184 14.2671 10.1239C14.9241 10.6293 15.4139 11.3206 15.673 12.108C15.7295 12.2703 15.8473 12.404 16.0013 12.4804C16.1552 12.5568 16.3329 12.5698 16.4964 12.5166C16.6598 12.4634 16.7958 12.3483 16.8753 12.1959C16.9548 12.0435 16.9713 11.8661 16.9214 11.7016C16.567 10.6099 15.8753 9.65875 14.9458 8.98524C14.0164 8.31174 12.8971 7.95061 11.7493 7.95388C6.31956 7.98182 4.2948 15.0608 8.7921 17.9688C6.09011 18.7918 2.54007 21.2006 3.93484 24.4012C4.20786 25.0306 4.65998 25.5659 5.23493 25.9403C5.80988 26.3148 6.48225 26.5119 7.16836 26.507Z" fill="#A478D1"></path>
  <path d="M35.2084 17.9688C39.7058 15.0634 37.6795 7.9788 32.2511 7.95388C31.1033 7.95062 29.9841 8.31176 29.0546 8.98526C28.1252 9.65877 27.4335 10.6099 27.0791 11.7017C27.0252 11.8672 27.0393 12.0474 27.1183 12.2025C27.1972 12.3577 27.3346 12.4751 27.5002 12.529C27.6657 12.5829 27.8459 12.5688 28.001 12.4899C28.1562 12.4109 28.2736 12.2735 28.3275 12.108C29.8025 7.69225 36.3492 8.74044 36.3858 13.4007C36.3846 14.4969 35.9487 15.5479 35.1735 16.3231C34.3984 17.0982 33.3475 17.5343 32.2512 17.5355C31.7237 17.5356 31.2011 17.4337 30.7122 17.2356C30.5906 17.1881 30.4576 17.178 30.3302 17.2064C30.2028 17.2348 30.0867 17.3005 29.9968 17.3951C29.9069 17.4898 29.8472 17.609 29.8253 17.7377C29.8034 17.8664 29.8204 17.9987 29.874 18.1177C29.8296 18.226 29.8153 18.3444 29.8327 18.4602C29.8501 18.5759 29.8985 18.6848 29.9729 18.7753C30.0472 18.8658 30.1446 18.9344 30.2548 18.974C30.365 19.0135 30.4839 19.0225 30.5988 18.9999C31.1435 18.8965 31.6968 18.8457 32.2512 18.848C33.419 18.8288 34.5778 19.055 35.6527 19.5118C36.7276 19.9686 37.6947 20.6459 38.4914 21.4999C38.7782 21.8189 38.9661 22.2144 39.0324 22.6383C39.0986 23.0621 39.0404 23.4961 38.8646 23.8874C38.6889 24.2787 38.4032 24.6106 38.0424 24.8426C37.6816 25.0747 37.2612 25.197 36.8322 25.1945H32.2317C32.0576 25.1945 31.8907 25.2637 31.7677 25.3867C31.6446 25.5098 31.5754 25.6767 31.5754 25.8508C31.5754 26.0248 31.6446 26.1918 31.7677 26.3148C31.8907 26.4379 32.0576 26.507 32.2317 26.507H36.8322C39.8109 26.5915 41.5302 22.7833 39.466 20.6206C38.3174 19.3624 36.8443 18.4449 35.2084 17.9688Z" fill="#A478D1"></path>
</svg>
