<?xml version="1.0" encoding="UTF-8"?>
<svg xmlns="http://www.w3.org/2000/svg" width="44" height="47" viewBox="0 0 44 47" fill="none">
  <circle cx="23.5" cy="10.5" r="10.5" fill="#E9EBF8"></circle>
  <g clip-path="url(#clip0_938_1859)">
    <path d="M7.00065 23.5601H8.24065V35.3201C8.24065 35.6867 8.54065 35.9867 8.90732 35.9867H10.5073C10.8207 37.4801 12.1407 38.6067 13.7273 38.6067C15.314 38.6067 16.6407 37.4801 16.9473 35.9867H29.054C29.3673 37.4801 30.694 38.6067 32.274 38.6067C33.854 38.6067 35.1873 37.4801 35.494 35.9867H37.094C37.4607 35.9867 37.7607 35.6867 37.7607 35.3201V23.5601H39.0007C39.3673 23.5601 39.6673 23.2601 39.6673 22.8934V20.2267C39.6673 19.8601 39.3673 19.5601 39.0007 19.5601H7.00065C6.63398 19.5601 6.33398 19.8601 6.33398 20.2267V22.8934C6.33398 23.2601 6.63398 23.5601 7.00065 23.5601ZM13.7207 37.2734C12.6407 37.2734 11.7607 36.3934 11.7607 35.3134C11.7607 34.2334 12.6407 33.3534 13.7207 33.3534C14.8007 33.3534 15.6807 34.2334 15.6807 35.3134C15.6807 36.3934 14.8007 37.2734 13.7207 37.2734ZM32.2807 37.2734C31.2007 37.2734 30.3207 36.3934 30.3207 35.3134C30.3207 34.2334 31.2007 33.3534 32.2807 33.3534C33.3607 33.3534 34.2407 34.2334 34.2407 35.3134C34.2407 36.3934 33.354 37.2734 32.2807 37.2734ZM36.434 34.6534H35.5007C35.194 33.1534 33.8673 32.0267 32.274 32.0267C30.6807 32.0267 29.3607 33.1534 29.0473 34.6534H16.9473C16.6407 33.1534 15.314 32.0267 13.7207 32.0267C12.1273 32.0267 10.8073 33.1534 10.5007 34.6534H9.56732V23.5601H36.4273V34.6534H36.434ZM7.66732 20.8934H38.334V22.2267H7.66732V20.8934Z" fill="#A478D1"></path>
    <path d="M14.4728 17.0467H13.4928C13.1262 17.0467 12.8262 17.3467 12.8262 17.7134C12.8262 18.0801 13.1262 18.3801 13.4928 18.3801H15.1062H31.3862H32.9995C33.3662 18.3801 33.6662 18.0801 33.6662 17.7134C33.6662 17.3467 33.3662 17.0467 32.9995 17.0467H32.0195C31.7195 13.1001 28.8195 9.86672 25.0262 9.08672C25.2595 8.71339 25.3995 8.28005 25.3995 7.81339C25.3995 6.47339 24.3128 5.38672 22.9728 5.38672C21.6328 5.38672 20.5462 6.47339 20.5462 7.81339C20.5462 8.33339 20.7128 8.81339 20.9928 9.21339C17.4328 10.1601 14.7595 13.2734 14.4728 17.0467ZM22.9662 6.72672C23.5662 6.72672 24.0595 7.22005 24.0595 7.82005C24.0595 8.42005 23.5662 8.91339 22.9662 8.91339C22.3662 8.91339 21.8728 8.42005 21.8728 7.82005C21.8728 7.22005 22.3595 6.72672 22.9662 6.72672ZM23.2462 10.2467C27.1395 10.2467 30.3528 13.2467 30.6862 17.0534H15.8062C16.1395 13.2401 19.3528 10.2467 23.2462 10.2467Z" fill="#A478D1"></path>
  </g>
  <defs>
    <clipPath id="clip0_938_1859">
      <rect width="44" height="44" fill="white" transform="translate(0 3)"></rect>
    </clipPath>
  </defs>
</svg>
