<?xml version="1.0" encoding="UTF-8"?>
<svg xmlns="http://www.w3.org/2000/svg" width="39" height="35" viewBox="0 0 39 35" fill="none">
  <circle cx="28.5" cy="10.5" r="10.5" fill="#E9EBF8"></circle>
  <g clip-path="url(#clip0_938_1875)">
    <path d="M33.3958 7.43002C32.9552 6.90927 32.3383 6.59118 31.6585 6.53441L7.71538 4.53519C7.03552 4.47841 6.37451 4.68978 5.85369 5.13025C5.33499 5.56899 5.01737 6.18279 4.9588 6.85926L4.47709 11.3786H2.55364C1.14557 11.3786 0 12.5242 0 13.9322V28.9202C0 30.3283 1.14557 31.4738 2.55364 31.4738H26.5802C27.9883 31.4738 29.1339 30.3283 29.1339 28.9202V26.4889L29.9865 26.5601C30.0584 26.566 30.1299 26.569 30.2008 26.569C31.5136 26.569 32.6326 25.5591 32.7438 24.2277L33.991 9.29178C34.0477 8.61198 33.8363 7.95085 33.3958 7.43002ZM2.55364 12.7067H26.5802C27.2559 12.7067 27.8058 13.2565 27.8058 13.9322V15.2979H1.32812V13.9322C1.32812 13.2565 1.8779 12.7067 2.55364 12.7067ZM1.32812 16.6261H27.8058V19.3812H1.32812V16.6261ZM26.5802 30.1457H2.55364C1.8779 30.1457 1.32812 29.5959 1.32812 28.9202V20.7093H27.8058V28.9202C27.8058 29.5959 27.2559 30.1457 26.5802 30.1457ZM32.6674 9.18121L31.4203 24.1172C31.364 24.7906 30.7703 25.293 30.097 25.2365L29.1339 25.1561V13.9322C29.1339 12.5242 27.9883 11.3786 26.5802 11.3786H5.81278L6.28021 6.99314C6.28074 6.98809 6.28121 6.98311 6.28161 6.978C6.33785 6.30457 6.93126 5.80228 7.60488 5.85872L31.5481 7.85794C31.8743 7.88517 32.1704 8.03784 32.3818 8.28779C32.5932 8.53774 32.6947 8.85496 32.6674 9.18121Z" fill="#A478D1"></path>
    <path d="M25.0258 22.6836H18.6348C18.268 22.6836 17.9707 22.9809 17.9707 23.3477V27.5172C17.9707 27.884 18.268 28.1813 18.6348 28.1813H25.0258C25.3926 28.1813 25.6899 27.884 25.6899 27.5172V23.3477C25.6899 22.9809 25.3926 22.6836 25.0258 22.6836ZM24.3618 26.8532H19.2988V24.0117H24.3618V26.8532Z" fill="#A478D1"></path>
  </g>
  <defs>
    <clipPath id="clip0_938_1875">
      <rect width="34" height="34" fill="white" transform="translate(0 1)"></rect>
    </clipPath>
  </defs>
</svg>
