<?xml version="1.0" encoding="UTF-8"?>
<svg xmlns="http://www.w3.org/2000/svg" width="38" height="38" viewBox="0 0 38 38" fill="none">
  <circle cx="27.5" cy="10.5" r="10.5" fill="#E9EBF8"></circle>
  <g clip-path="url(#clip0_938_1850)">
    <path d="M31.3691 6.66209C30.6089 5.9019 29.2951 5.82715 27.5687 6.44584C26.3815 6.87146 25.1362 7.58471 24.5405 8.18046L19.7561 12.9648L4.00725 10.4912L0 14.4985L13.0938 19.6272L8.88969 23.8313L2.92269 24.1807L0.0615 27.0419L6.53706 30.1665L4.72294 31.9807L6.05044 33.3082L7.86212 31.4965L10.9898 37.969L13.8503 35.1084L14.1998 29.1414L18.4745 24.8667L23.6022 37.9579L27.6094 33.9507L25.1362 18.2048L29.8506 13.4904C30.4464 12.8947 31.1597 11.6495 31.5853 10.4622C32.204 8.73634 32.1292 7.42215 31.3691 6.66209ZM3.35662 13.797L4.6595 12.4941L18.1137 14.6073L14.5427 18.1783L3.35662 13.797ZM25.6066 33.2985L24.3037 34.6014L19.9233 23.418L23.4938 19.8475L25.6066 33.2985ZM29.818 9.8289C29.4593 10.8297 28.8665 11.8197 28.5231 12.1631L12.3675 28.3188L12.018 34.2858L11.5307 34.7732L9.26806 30.0908L10.9001 28.4587L9.57262 27.1312L7.94325 28.7605L3.25856 26.5L3.74531 26.0133L9.71231 25.6638L25.868 9.50803C26.2114 9.16459 27.2015 8.57196 28.2022 8.21315C29.3382 7.8059 29.941 7.88903 30.0416 7.98959C30.142 8.09009 30.2252 8.69271 29.818 9.8289Z" fill="#A478D1"></path>
  </g>
  <defs>
    <clipPath id="clip0_938_1850">
      <rect width="32" height="32" fill="white" transform="translate(0 6)"></rect>
    </clipPath>
  </defs>
</svg>
