<svg width="50" height="48" viewBox="0 0 46 44" fill="none" xmlns="http://www.w3.org/2000/svg">
<circle cx="34" cy="11" r="11" fill="#D1D1FF"/>
<path d="M26.8358 10.7503C27.9724 10.7841 29.0162 11.0091 30.0133 11.4681C32.9133 12.8023 34.7342 15.9342 34.4811 19.1694C34.2231 22.467 31.9535 25.2909 28.8638 26.1208C28.3232 26.2659 27.7581 26.3334 27.1996 26.381C26.8955 26.4067 26.8293 26.513 26.8308 26.8011C26.8408 29.1955 26.8337 31.5898 26.8387 33.9834C26.8401 34.6638 26.6705 35.2649 26.1414 35.7158C25.4786 36.281 24.5914 36.3184 23.8028 35.8162C21.3248 34.2385 18.8476 32.6587 16.3696 31.0803C16.0489 30.8765 15.7269 30.6764 15.3344 30.43C15.3344 30.6514 15.3344 30.7936 15.3344 30.9351C15.3344 33.317 15.3452 35.6989 15.3301 38.0808C15.3099 41.231 13.0699 43.6994 10.0024 43.9772C6.88748 44.2595 3.97599 41.7317 3.86241 38.5449C3.78046 36.2392 3.83509 33.9284 3.8315 31.6199C3.82934 29.6412 3.82718 27.6618 3.83653 25.6831C3.83797 25.4207 3.75026 25.2711 3.53532 25.123C1.03072 23.4017 -0.168378 20.9853 0.0185323 17.9195C0.239949 14.292 3.12699 11.2525 6.67612 10.8413C7.35116 10.7628 8.03841 10.7965 8.71919 10.7562C8.91114 10.7445 9.12393 10.6932 9.28496 10.5913C14.1015 7.53051 18.913 4.46244 23.7245 1.39436C24.6806 0.785142 25.6899 0.886311 26.3577 1.66414C26.7258 2.09228 26.838 2.60399 26.8372 3.15969C26.8337 5.52985 26.8358 7.89927 26.8365 10.2694C26.8365 10.4248 26.8365 10.5803 26.8365 10.7511L26.8358 10.7503ZM22.9732 6.49902C22.8237 6.58626 22.7116 6.64711 22.6045 6.71602C18.9899 9.0202 15.3775 11.3266 11.7601 13.6256C11.5631 13.751 11.4883 13.8837 11.4891 14.1219C11.497 17.0903 11.4977 20.0587 11.4891 23.0271C11.4891 23.2763 11.5624 23.4222 11.7709 23.5549C15.389 25.8525 19.0021 28.1581 22.6174 30.4601C22.7231 30.5275 22.8359 30.5825 22.9732 30.6588V6.49902ZM7.65525 32.4424C7.65525 33.0164 7.65525 33.5905 7.65525 34.1645C7.65525 35.4834 7.64231 36.8022 7.661 38.1211C7.67681 39.2252 8.53516 40.0866 9.57754 40.0866C10.635 40.0866 11.4876 39.2281 11.4905 38.1233C11.4984 34.8265 11.4962 31.5297 11.484 28.2322C11.484 28.0958 11.3769 27.9118 11.264 27.8333C10.8004 27.5093 10.2943 27.2469 9.84281 26.9074C9.30365 26.502 8.7307 26.3495 8.06645 26.395C7.73648 26.4177 7.64518 26.5071 7.64734 26.8385C7.66171 28.7065 7.65381 30.5752 7.65381 32.4432L7.65525 32.4424ZM7.63152 14.7245C6.47124 14.6021 5.09817 15.3528 4.41883 16.5089C3.60864 17.8879 3.60217 19.3043 4.43105 20.6686C5.14921 21.8511 6.24264 22.4266 7.63152 22.4941V14.7245ZM26.8574 22.4523C27.9932 22.596 29.4461 21.7786 30.1139 20.5807C30.9076 19.1562 30.8723 17.72 29.9709 16.3631C29.2419 15.2656 28.1952 14.7092 26.8574 14.6916V22.4523Z" fill="#4478D1"/>
<path d="M42.1482 20.5411C41.5379 20.5411 40.9275 20.5499 40.3179 20.5397C39.1677 20.5206 38.3367 19.6863 38.3424 18.5705C38.3482 17.4547 39.1907 16.6322 40.3395 16.6285C41.5602 16.6249 42.7801 16.6241 44.0008 16.6285C45.128 16.6329 45.9849 17.4562 46 18.5375C46.0158 19.6511 45.1891 20.5082 44.0504 20.5375C43.4163 20.5536 42.7823 20.5404 42.1482 20.5404V20.5411Z" fill="#4478D1"/>
<path d="M40.2468 12.7078C39.4445 12.6814 38.8421 12.3112 38.5143 11.5627C38.1951 10.8347 38.2634 10.1052 38.7975 9.51214C39.4927 8.74091 40.2202 7.9946 40.9779 7.28715C41.6953 6.61708 42.824 6.68966 43.5242 7.38172C44.2208 8.07011 44.3336 9.23429 43.6888 9.97254C42.9814 10.7812 42.2057 11.5289 41.4387 12.2811C41.1181 12.5956 40.6961 12.7129 40.2461 12.7078H40.2468Z" fill="#4478D1"/>
<path d="M42.3862 30.2974C41.6421 30.3047 41.1971 30.12 40.8312 29.7519C40.1842 29.1002 39.5315 28.4529 38.9025 27.7828C38.1577 26.9888 38.1764 25.8063 38.9204 25.0468C39.6494 24.302 40.8125 24.2675 41.5774 25.005C42.264 25.667 42.9361 26.3481 43.5781 27.0548C44.1359 27.6684 44.2351 28.4081 43.8994 29.1662C43.5687 29.9132 42.9634 30.2805 42.3855 30.2974H42.3862Z" fill="#4478D1"/>
</svg>
