<svg width="52" height="40" viewBox="0 0 52 40" fill="none" xmlns="http://www.w3.org/2000/svg">
<path d="M3.1805 27.2168L12.7191 27.3094V36.7539H3.1805V27.2168ZM12.9674 27.2369L12.9691 27.0618V27.2367C12.9685 27.2368 12.968 27.2368 12.9674 27.2369ZM21.2307 27.2168L30.7693 27.3094V36.7539H21.2307V27.2168ZM31.0176 27.2369L31.0193 27.0618V27.2367C31.0187 27.2368 31.0182 27.2368 31.0176 27.2369ZM20.9807 12.7761V12.6012C20.9818 12.601 20.983 12.6009 20.9841 12.6007L20.9807 12.7761ZM30.7693 12.7161L21.2307 12.5309V3.18051H30.7693V12.7161ZM49.0695 36.636V36.8108L49.0678 36.6357C49.0684 36.6358 49.0689 36.6359 49.0695 36.636ZM48.8195 27.2153V36.5632L39.2809 36.6559V27.2153H48.8195ZM48.973 24.7848H45.2654V19.9189C45.2654 19.5725 45.1488 19.2645 44.9267 19.0423C44.7046 18.8202 44.3966 18.7037 44.0502 18.7037H27.2153V15.0531H30.9228C32.2192 15.0531 33.1998 14.0725 33.1998 12.7761V3.02703C33.1998 1.73066 32.2192 0.75 30.9228 0.75H21.0772C19.7808 0.75 18.8002 1.73066 18.8002 3.02703V12.8726C18.8002 14.169 19.7808 15.1496 21.0772 15.1496H24.7847V18.7037H7.94981C7.60342 18.7037 7.29534 18.8202 7.07323 19.0423C6.85112 19.2644 6.73456 19.5725 6.73456 19.9189V24.7848H3.02703C1.73066 24.7848 0.75 25.7654 0.75 27.0618V36.9074C0.75 38.2038 1.73066 39.1844 3.02703 39.1844H12.8726C14.169 39.1844 15.1496 38.2038 15.1496 36.9074V27.0618C15.1496 25.7654 14.169 24.7848 12.8726 24.7848H9.16506V21.1342H24.7847V24.7848H21.0772C19.7808 24.7848 18.8002 25.7654 18.8002 27.0618V36.9074C18.8002 38.2038 19.7808 39.1844 21.0772 39.1844H30.9228C32.2192 39.1844 33.1998 38.2038 33.1998 36.9074V27.0618C33.1998 25.7654 32.2192 24.7848 30.9228 24.7848H27.2153V21.1342H42.8349V24.7848H39.1274C37.831 24.7848 36.8504 25.7654 36.8504 27.0618V36.9074C36.8504 38.2038 37.831 39.1844 39.1274 39.1844H48.973C50.2694 39.1844 51.25 38.2038 51.25 36.9074V27.0618C51.25 25.7577 50.165 24.7848 48.973 24.7848Z" fill="#4478D1" stroke="#4478D1" stroke-width="0.5"/>
</svg>
