<?xml version="1.0" encoding="UTF-8"?>
<svg xmlns="http://www.w3.org/2000/svg" width="36" height="43" viewBox="0 0 36 43" fill="none">
  <path d="M18 42.4787L5.80234 30.281C3.38991 27.8685 1.74702 24.7949 1.08145 21.4487C0.415868 18.1026 0.757488 14.6342 2.06311 11.4822C3.36872 8.33014 5.5797 5.63608 8.41644 3.74063C11.2532 1.84519 14.5883 0.833496 18 0.833496C21.4117 0.833496 24.7468 1.84519 27.5836 3.74063C30.4203 5.63608 32.6313 8.33014 33.9369 11.4822C35.2425 14.6342 35.5841 18.1026 34.9186 21.4487C34.253 24.7949 32.6101 27.8685 30.1977 30.281L18 42.4787ZM27.4875 27.5708C29.3637 25.6944 30.6414 23.3038 31.159 20.7013C31.6766 18.0987 31.4108 15.4012 30.3953 12.9497C29.3797 10.4982 27.6601 8.40285 25.4538 6.92867C23.2474 5.45449 20.6535 4.66765 18 4.66765C15.3465 4.66765 12.7526 5.45449 10.5463 6.92867C8.33992 8.40285 6.62027 10.4982 5.60476 12.9497C4.58924 15.4012 4.32346 18.0987 4.84104 20.7013C5.35861 23.3038 6.63629 25.6944 8.51251 27.5708L18 37.0583L27.4875 27.5708ZM18 21.9167C16.9833 21.9167 16.0083 21.5128 15.2894 20.7939C14.5705 20.075 14.1667 19.1 14.1667 18.0833C14.1667 17.0667 14.5705 16.0917 15.2894 15.3728C16.0083 14.6539 16.9833 14.25 18 14.25C19.0167 14.25 19.9917 14.6539 20.7106 15.3728C21.4295 16.0917 21.8333 17.0667 21.8333 18.0833C21.8333 19.1 21.4295 20.075 20.7106 20.7939C19.9917 21.5128 19.0167 21.9167 18 21.9167Z" fill="url(#paint0_linear_1258_1450)"></path>
  <defs>
    <linearGradient id="paint0_linear_1258_1450" x1="30.5577" y1="0.833485" x2="0.0343183" y2="4.34164" gradientUnits="userSpaceOnUse">
      <stop stop-color="#A478D1"></stop>
      <stop offset="1" stop-color="#4478D1"></stop>
    </linearGradient>
  </defs>
</svg>
