<svg xmlns="http://www.w3.org/2000/svg" xmlns:xlink="http://www.w3.org/1999/xlink" xml:space="preserve" width="10.1461in" height="1.91539in" version="1.1" style="shape-rendering:geometricPrecision; text-rendering:geometricPrecision; image-rendering:optimizeQuality; fill-rule:evenodd; clip-rule:evenodd" viewBox="0 0 10146 1915" class="custom-logo replaced-svg">
 <defs>
  <style type="text/css">
   <![CDATA[
    .fil3 {fill:#373435}
    .fil1 {fill:#4B2D87;fill-rule:nonzero}
    .fil2 {fill:url(#id0)}
    .fil0 {fill:url(#id1);fill-rule:nonzero}
   ]]>
  </style>
  <linearGradient id="id0" gradientUnits="userSpaceOnUse" x1="2328.07" y1="245.205" x2="-58.7874" y2="1876.62">
   <stop offset="0" style="stop-opacity:1; stop-color:#A478D1"></stop>
   <stop offset="1" style="stop-opacity:1; stop-color:#4478D1"></stop>
  </linearGradient>
  <linearGradient id="id1" gradientUnits="userSpaceOnUse" xlink:href="#id0" x1="9093.41" y1="1410.22" x2="2946.74" y2="1903.38">
  </linearGradient>
 </defs>
<symbol id="Fm0-24-0" viewBox="6018 -8320 5139 9028">
 <image x="6018" y="-8323" width="5140" height="9030"></image>
</symbol>
<symbol id="Fm2-26-0" viewBox="16073 -8320 5139 9028">
 <image x="16073" y="-8323" width="5140" height="9030"></image>
</symbol>
<symbol id="Fm1-25-0" viewBox="11045 -8320 5153 9028">
 <image x="11045" y="-8323" width="5154" height="9030"></image>
</symbol>
 <g id="Layer_x0020_1">
  <metadata id="CorelCorpID_0Corel-Layer"></metadata>
  <g id="_2491589405312">
   <g>
    <path class="fil0" d="M3098 1795l56 -32c17,54 59,89 130,89 69,0 104,-32 104,-76 0,-50 -44,-67 -115,-89 -79,-25 -154,-50 -154,-140 0,-88 72,-138 154,-138 80,0 138,45 165,106l-55 32c-17,-42 -51,-76 -110,-76 -53,0 -89,28 -89,73 0,45 34,62 103,84 85,28 165,53 165,147 0,86 -69,140 -169,140 -93,0 -159,-47 -185,-120zm1135 -133c0,-108 -81,-191 -188,-191 -107,0 -188,83 -188,191 0,107 81,190 188,190 107,0 188,-83 188,-190zm-441 0c0,-141 111,-253 253,-253 142,0 253,112 253,253 0,140 -111,253 -253,253 -142,0 -253,-113 -253,-253zm1153 183l0 61 -276 0 0 -488 65 0 0 427 211 0zm344 -103l0 -324 65 0 0 321c0,68 40,113 118,113 79,0 119,-45 119,-113l0 -321 64 0 0 324c0,106 -76,173 -183,173 -106,0 -183,-67 -183,-173zm1071 -263l-144 0 0 427 -65 0 0 -427 -143 0 0 -61 352 0 0 61zm422 427l-65 0 0 -488 65 0 0 488zm813 -244c0,-108 -82,-191 -188,-191 -107,0 -189,83 -189,191 0,107 82,190 189,190 106,0 188,-83 188,-190zm-441 0c0,-141 111,-253 253,-253 141,0 253,112 253,253 0,140 -112,253 -253,253 -142,0 -253,-113 -253,-253zm1245 -244l0 488 -52 0 -251 -365 0 365 -65 0 0 -488 52 0 252 364 0 -364 64 0zm363 377l56 -32c18,54 59,89 131,89 69,0 103,-32 103,-76 0,-50 -43,-67 -115,-89 -78,-25 -154,-50 -154,-140 0,-88 72,-138 154,-138 80,0 138,45 165,106l-54 32c-18,-42 -52,-76 -111,-76 -53,0 -89,28 -89,73 0,45 34,62 103,84 85,28 165,53 165,147 0,86 -69,140 -169,140 -93,0 -159,-47 -185,-120z"></path>
    <g>
     <polygon class="fil1" points="3983,1129 3779,1129 3779,611 3549,989 3526,989 3296,611 3296,1129 3093,1129 3093,239 3296,239 3538,634 3779,239 3983,239 "></polygon>
     <path class="fil1" d="M4633 798l-104 -327 -104 327 208 0zm61 191l-330 0 -45 140 -222 0 302 -890 260 0 302 890 -222 0 -45 -140z"></path>
     <path class="fil1" d="M5012 927l175 -102c32,74 87,123 187,123 97,0 121,-38 121,-72 0,-55 -51,-77 -184,-113 -133,-37 -262,-101 -262,-271 0,-172 145,-271 299,-271 146,0 260,70 325,201l-172 100c-30,-63 -72,-103 -153,-103 -64,0 -96,32 -96,68 0,40 22,68 160,110 135,41 286,88 286,276 0,172 -137,273 -330,273 -187,0 -307,-88 -356,-219z"></path>
     <polygon class="fil1" points="6404,435 6175,435 6175,1129 5972,1129 5972,435 5743,435 5743,239 6404,239 "></polygon>
     <path class="fil1" d="M7446 658l152 0c56,0 102,-49 102,-114 0,-65 -46,-114 -102,-114l-152 0 0 228zm96 178l-96 0 0 293 -203 0 0 -890 355 0c169,0 305,136 305,305 0,109 -66,208 -163,258l189 327 -219 0 -168 -293z"></path>
     <polygon class="fil1" points="8583,933 8583,1129 8062,1129 8062,239 8266,239 8266,933 "></polygon>
     <polygon class="fil1" points="9022,787 9022,1129 8819,1129 8819,787 8520,239 8751,239 8920,582 9089,239 9321,239 "></polygon>
     <polygon class="fil1" points="6529,435 7082,435 7082,237 6529,237 "></polygon>
     <polygon class="fil1" points="6529,773 7082,773 7082,575 6529,575 "></polygon>
     <polygon class="fil1" points="6529,1111 7082,1111 7082,913 6529,913 "></polygon>
    </g>
    <path class="fil2" d="M420 240l0 0c134,-1 253,62 331,159l-747 754 -4 -489c-2,-232 188,-423 420,-424zm1795 124l0 0c163,165 163,433 -2,597l-724 716 -261 -263 640 -640c17,-17 17,-45 0,-62l0 0c-17,-17 -44,-17 -61,0l-364 365 0 0 -17 16c-235,235 -470,466 -707,700 -165,164 -433,163 -597,-2l0 0c-163,-164 -163,-433 2,-597l724 -716 261 263 -562 563c-17,16 -17,44 0,61l0 0c17,17 44,17 61,0l286 -286 0 -1 37 -36c228,-228 457,-452 687,-680 165,-164 433,-163 597,2zm-302 1551l0 0c-134,1 -253,-62 -330,-159l746 -762 4 497c2,232 -188,423 -420,424z"></path>
   </g>
   <g>
    <path class="fil3" d="M9747 354l77 0 0 -205c4,3 11,15 14,20 4,7 8,14 13,21 8,14 17,28 25,42 3,4 50,84 52,85l36 0c14,-17 84,-144 105,-174l0 211 77 0 -1 -353c-5,-1 -58,-1 -67,0l-131 218c0,0 0,-1 0,0l-2 -3c0,-1 -1,-2 -2,-3l-127 -212 -69 0 0 353z"></path>
    <path class="fil3" d="M9395 67l113 0 0 287 82 0 0 -287c18,0 105,2 114,0l0 -66c-10,-2 -294,-1 -309,0l0 66z"></path>
   </g>
  </g>
 </g>
</svg>