<svg width="50" height="59" viewBox="0 0 50 59" fill="none" xmlns="http://www.w3.org/2000/svg">
<circle cx="38.5" cy="11.5" r="11.5" fill="#D1D1FF"/>
<path d="M30.0969 30.569C30.0969 29.6504 29.3496 28.9031 28.431 28.9031H28.4257V26.9624C28.4257 26.4312 27.9945 26 27.4633 26C26.932 26 26.5009 26.4312 26.5009 26.9624V28.9031H25.9624V26.9624C25.9624 26.4312 25.5312 26 25 26C24.4688 26 24.0376 26.4312 24.0376 26.9624V28.9031H23.4991V26.9624C23.4991 26.4312 23.068 26 22.5367 26C22.0055 26 21.5743 26.4312 21.5743 26.9624V28.9031H21.569C20.6504 28.9031 19.9031 29.6504 19.9031 30.569V30.5743H17.9624C17.4312 30.5743 17 31.0055 17 31.5367C17 32.068 17.4312 32.4991 17.9624 32.4991H19.9031V33.0376H17.9624C17.4312 33.0376 17 33.4688 17 34C17 34.5312 17.4312 34.9624 17.9624 34.9624H19.9031V35.5009H17.9624C17.4312 35.5009 17 35.932 17 36.4633C17 36.9945 17.4312 37.4257 17.9624 37.4257H19.9031V37.431C19.9031 38.3496 20.6504 39.0969 21.569 39.0969H21.5743V41.0376C21.5743 41.5688 22.0055 42 22.5367 42C23.068 42 23.4991 41.5688 23.4991 41.0376V39.0969H24.0376V41.0376C24.0376 41.5688 24.4688 42 25 42C25.5312 42 25.9624 41.5688 25.9624 41.0376V39.0969H26.5009V41.0376C26.5009 41.5688 26.932 42 27.4633 42C27.9945 42 28.4257 41.5688 28.4257 41.0376V39.0969H28.431C29.3496 39.0969 30.0969 38.3496 30.0969 37.431V37.4257H32.0376C32.5688 37.4257 33 36.9945 33 36.4633C33 35.932 32.5688 35.5009 32.0376 35.5009H30.0969V34.9624H32.0376C32.5688 34.9624 33 34.5312 33 34C33 33.4688 32.5688 33.0376 32.0376 33.0376H30.0969V32.4991H32.0376C32.5688 32.4991 33 32.068 33 31.5367C33 31.0055 32.5688 30.5743 32.0376 30.5743H30.0969V30.569ZM28.1721 37.1721H21.8279V30.8279H28.1721V37.1721Z" fill="#4478D1"/>
<path d="M50 34C50 30.9184 47.8992 28.1288 44.3626 25.9652C45.3678 21.8171 44.7953 18.44 42.6774 16.3221C41.2597 14.9044 39.2093 14.1553 36.7486 14.1553C35.5771 14.1553 34.3299 14.3226 33.0327 14.6338C30.8696 11.0997 28.081 9 25 9C21.9195 9 19.1309 11.0997 16.9678 14.6338C15.6701 14.3226 14.4229 14.1553 13.2514 14.1553C10.7901 14.1553 8.73974 14.9044 7.3226 16.3221C5.20468 18.4395 4.63273 21.8166 5.6374 25.9652C2.10078 28.1288 0 30.9184 0 34C0 37.0821 2.10078 39.8712 5.6374 42.0348C4.63273 46.1823 5.20519 49.56 7.3226 51.6779C8.74026 53.0956 10.7906 53.8452 13.2519 53.8452C14.4229 53.8452 15.6706 53.6779 16.9683 53.3668C19.1309 56.9008 21.9195 59 25 59C28.0805 59 30.8691 56.9008 33.0322 53.3662C34.3294 53.6774 35.5771 53.8447 36.7481 53.8447C39.2094 53.8447 41.2603 53.0956 42.6774 51.6774C44.7953 49.56 45.3673 46.1823 44.3626 42.0343C47.8992 39.8712 50 37.0821 50 34ZM36.7486 16.2332C38.6738 16.2332 40.174 16.7574 41.2083 17.7917C42.6836 19.2675 43.108 21.8021 42.4629 24.9345C40.6473 24.0519 38.5595 23.3101 36.2603 22.7397C35.6904 20.4416 34.9491 18.3548 34.0665 16.5397C35.0042 16.3455 35.9055 16.2332 36.7486 16.2332ZM35.4873 34C35.4873 35.4566 35.4187 36.8847 35.2935 38.2743C34.3964 39.3429 33.4369 40.3943 32.4156 41.4161C31.3922 42.4395 30.334 43.3969 29.2603 44.2945C27.8753 44.4192 26.4519 44.4873 25.0005 44.4873C23.5491 44.4873 22.1257 44.4192 20.7408 44.2945C19.6665 43.3969 18.6088 42.4395 17.5849 41.4161C16.5636 40.3943 15.6042 39.3434 14.7075 38.2743C14.5818 36.8847 14.5132 35.4566 14.5132 34C14.5132 32.5434 14.5818 31.1153 14.7075 29.7257C15.6042 28.6571 16.5636 27.6057 17.5849 26.5844C18.6083 25.561 19.6665 24.6036 20.7408 23.7055C22.1262 23.5808 23.5491 23.5127 25.0005 23.5127C26.4519 23.5127 27.8748 23.5808 29.2597 23.7055C30.334 24.6031 31.3917 25.5605 32.4156 26.5844C33.4369 27.6057 34.3964 28.6577 35.2935 29.7262C35.4187 31.1153 35.4873 32.5439 35.4873 34ZM33.8847 25.1153C33.5678 24.7979 33.2457 24.4919 32.9231 24.1865C33.4597 24.28 33.9865 24.3839 34.5044 24.4956C34.6156 25.0109 34.719 25.5345 34.8125 26.0686C34.5081 25.7486 34.1995 25.4301 33.8847 25.1153ZM30.0904 21.6852C29.0618 20.8457 28.0208 20.0712 26.9761 19.3579C28.6956 18.3896 30.387 17.6255 31.999 17.0961C32.7548 18.5979 33.414 20.3309 33.9491 22.2379C32.7091 22.0057 31.4213 21.8187 30.0904 21.6852ZM26.3377 21.4525C25.8951 21.4416 25.4494 21.4353 25 21.4353C24.5506 21.4353 24.1049 21.4416 23.6618 21.4525C24.1075 21.1387 24.5538 20.8353 25 20.546C25.4462 20.8348 25.8925 21.1382 26.3377 21.4525ZM19.9096 21.6852C18.5782 21.8187 17.2909 22.0057 16.0509 22.2379C16.5865 20.3309 17.2452 18.5979 18.001 17.0961C19.613 17.6255 21.3044 18.3896 23.0234 19.3579C21.9797 20.0712 20.9387 20.8457 19.9096 21.6852ZM17.0769 24.1865C16.7548 24.4919 16.4327 24.7979 16.1153 25.1153C15.8005 25.4301 15.4919 25.7481 15.1881 26.0681C15.2816 25.5345 15.3844 25.0104 15.4956 24.4956C16.0135 24.3839 16.5397 24.28 17.0769 24.1865ZM12.6852 28.9117C11.8457 29.9408 11.066 30.986 10.3491 32.0374C9.4774 30.4868 8.76416 28.9429 8.23688 27.439C8.18545 27.2919 8.14078 27.1481 8.09351 27.0026C9.59584 26.2462 11.3294 25.5865 13.2379 25.0509C13.0057 26.2919 12.8182 27.5797 12.6852 28.9117ZM12.453 32.6416C12.4416 33.0909 12.4348 33.5439 12.4348 34C12.4348 34.4561 12.441 34.9091 12.453 35.3584C12.1335 34.9065 11.8306 34.4535 11.5371 34C11.8306 33.546 12.134 33.093 12.453 32.6416ZM12.6852 39.0888C12.8182 40.4203 13.0057 41.7086 13.2379 42.9491C11.3299 42.4135 9.59532 41.7538 8.09351 40.9974C8.14078 40.8525 8.18545 40.7081 8.23688 40.561C8.76416 39.0566 9.4774 37.5138 10.3491 35.9626C11.066 37.0145 11.8457 38.0587 12.6852 39.0888ZM15.1881 41.9319C15.4919 42.2519 15.8005 42.5704 16.1153 42.8852C16.4322 43.2021 16.7543 43.5081 17.0764 43.8135C16.5397 43.72 16.0135 43.6161 15.4961 43.5044C15.3849 42.9896 15.2816 42.4655 15.1881 41.9319ZM19.9091 46.3148C20.9382 47.1543 21.9792 47.9288 23.0234 48.6426C21.3044 49.6104 19.613 50.3751 18.0016 50.9044C17.2452 49.4026 16.5865 47.6691 16.0509 45.7626C17.2909 45.9943 18.5782 46.1813 19.9091 46.3148ZM23.6618 46.5475C24.1049 46.5584 24.5506 46.5647 25 46.5647C25.4494 46.5647 25.8956 46.5584 26.3382 46.5475C25.893 46.8613 25.4462 47.1647 25 47.454C24.5538 47.1652 24.1075 46.8618 23.6618 46.5475ZM30.0909 46.3148C31.4223 46.1813 32.7091 45.9943 33.9491 45.7626C33.414 47.6696 32.7548 49.4031 31.9984 50.9044C30.387 50.3751 28.6956 49.6109 26.9766 48.6426C28.0203 47.9288 29.0618 47.1543 30.0909 46.3148ZM32.9236 43.8135C33.2452 43.5081 33.5673 43.2021 33.8847 42.8852C34.1995 42.5704 34.5081 42.2519 34.8125 41.9319C34.719 42.4655 34.6156 42.9891 34.5044 43.5044C33.9865 43.6161 33.4603 43.72 32.9236 43.8135ZM37.3148 39.0883C38.1538 38.0592 38.9335 37.0145 39.6509 35.9626C40.5226 37.5132 41.2358 39.0566 41.7626 40.561C41.8145 40.7081 41.8592 40.8525 41.906 40.9974C40.4036 41.7538 38.6701 42.4135 36.7621 42.9491C36.9948 41.708 37.1818 40.4203 37.3148 39.0883ZM37.5465 35.3584C37.5579 34.9091 37.5647 34.4561 37.5647 34C37.5647 33.5439 37.5579 33.0909 37.5465 32.6416C37.866 33.0935 38.1688 33.5465 38.4623 34C38.1694 34.4535 37.8665 34.9065 37.5465 35.3584ZM37.3148 28.9117C37.1818 27.5797 36.9948 26.2919 36.7626 25.0509C38.6706 25.587 40.4047 26.2462 41.9065 27.0026C41.8587 27.1481 41.8145 27.2919 41.7631 27.439C41.2358 28.9429 40.5226 30.4868 39.6514 32.0374C38.9335 30.986 38.1538 29.9413 37.3148 28.9117ZM25 11.0779C27.1855 11.0779 29.239 12.6343 30.9413 15.2504C29.0171 15.9158 27.0156 16.8743 25 18.0883C22.9844 16.8743 20.9823 15.9158 19.0587 15.2504C20.7605 12.6343 22.814 11.0779 25 11.0779ZM8.79169 17.7917C9.82597 16.7579 11.3262 16.2332 13.2514 16.2332C14.0945 16.2332 14.9958 16.3449 15.9335 16.5392C15.0514 18.3543 14.3101 20.441 13.7397 22.7392C11.4405 23.3096 9.35273 24.0514 7.53714 24.9345C6.89143 21.8021 7.31584 19.2675 8.79169 17.7917ZM2.07792 34C2.07792 31.8135 3.63533 29.759 6.25351 28.0571C6.2613 28.0805 6.26805 28.1029 6.27584 28.1262C6.94961 30.0483 7.90286 32.026 9.08987 34.0005C7.90286 35.9751 6.94961 37.9522 6.27584 39.8748C6.26753 39.8982 6.2613 39.9205 6.25351 39.9439C3.63533 38.2405 2.07792 36.1865 2.07792 34ZM13.2514 51.7668C11.3262 51.7668 9.82545 51.2421 8.79169 50.2083C7.31636 48.7325 6.89143 46.1979 7.53714 43.0655C9.35273 43.9481 11.4405 44.6899 13.7397 45.2603C14.3101 47.559 15.0514 49.6457 15.9335 51.4608C14.9964 51.6551 14.0945 51.7668 13.2514 51.7668ZM25 56.9221C22.8145 56.9221 20.761 55.3662 19.0587 52.7501C20.9823 52.0847 22.9844 51.1262 25 49.9122C27.0156 51.1257 29.0171 52.0847 30.9413 52.7501C29.239 55.3662 27.1855 56.9221 25 56.9221ZM41.2083 50.2083C40.174 51.2421 38.6738 51.7668 36.7481 51.7668C35.9049 51.7668 35.0036 51.6551 34.0665 51.4608C34.9486 49.6457 35.6904 47.5584 36.2603 45.2597C38.56 44.6894 40.6473 43.948 42.4629 43.0649C43.108 46.1979 42.6836 48.7325 41.2083 50.2083ZM43.747 39.9429C43.7387 39.9195 43.7325 39.8971 43.7242 39.8738C43.0504 37.9517 42.0971 35.974 40.9101 33.9995C42.0971 32.0255 43.0504 30.0478 43.7242 28.1252C43.7325 28.1018 43.7387 28.0795 43.747 28.0561C46.3647 29.7584 47.9221 31.8125 47.9221 33.999C47.9221 36.1855 46.3647 38.2405 43.747 39.9429Z" fill="#4478D1"/>
</svg>
