<svg width="50" height="50" viewBox="0 0 50 50" fill="none" xmlns="http://www.w3.org/2000/svg">
<path d="M17.1132 8.08594C18.0604 8.08594 18.8281 7.31818 18.8281 6.3711C18.8281 5.42402 18.0604 4.65625 17.1132 4.65625C16.1662 4.65625 15.3984 5.42403 15.3984 6.3711C15.3984 7.31817 16.1662 8.08594 17.1132 8.08594Z" fill="#4478D1" stroke="#4478D1" stroke-width="0.5"/>
<path d="M45.4336 41.2891C46.3807 41.2891 47.1484 40.5213 47.1484 39.5743C47.1484 38.6272 46.3807 37.8594 45.4336 37.8594C44.4865 37.8594 43.7188 38.6272 43.7188 39.5743C43.7188 40.5214 44.4865 41.2891 45.4336 41.2891Z" fill="#4478D1" stroke="#4478D1" stroke-width="0.5"/>
<path d="M4.90625 8.08593C5.58366 8.08593 6.13282 7.53679 6.13282 6.85937C6.13282 6.18196 5.58366 5.63281 4.90625 5.63281C4.22884 5.63281 3.67969 6.18196 3.67969 6.85937C3.67969 7.53678 4.22884 8.08593 4.90625 8.08593Z" fill="#4478D1" stroke="#4478D1" stroke-width="0.5"/>
<path d="M24.4375 11.9922C25.1149 11.9922 25.664 11.443 25.664 10.7656C25.664 10.0882 25.1149 9.53906 24.4375 9.53906C23.7601 9.53906 23.2109 10.0882 23.2109 10.7656C23.2109 11.443 23.7601 11.9922 24.4375 11.9922Z" fill="#4478D1" stroke="#4478D1" stroke-width="0.5"/>
<path d="M26.3907 40.3126C27.068 40.3126 27.6173 39.7633 27.6173 39.086C27.6173 38.4086 27.068 37.8594 26.3907 37.8594C25.7132 37.8594 25.1641 38.4086 25.1641 39.086C25.1641 39.7633 25.7132 40.3126 26.3907 40.3126Z" fill="#4478D1" stroke="#4478D1" stroke-width="0.5"/>
<path d="M37.1329 48.1251C37.8103 48.1251 38.3593 47.5758 38.3593 46.8985C38.3593 46.2211 37.8103 45.6719 37.1329 45.6719C36.4554 45.6719 35.9062 46.2211 35.9062 46.8985C35.9062 47.5758 36.4554 48.1251 37.1329 48.1251Z" fill="#4478D1" stroke="#4478D1" stroke-width="0.5"/>
<path d="M5.58008 49.1015H16.9277C19.5853 49.1015 21.7581 46.929 21.748 44.2613C21.748 44.2611 21.748 44.2609 21.748 44.2608L21.748 20.2285C21.748 17.5712 19.5857 15.3984 16.9179 15.3984H5.58008C2.92282 15.3984 0.75 17.5608 0.75 20.2285V44.2714C0.75 46.9291 2.92248 49.1015 5.58008 49.1015ZM3.20313 20.2285C3.20313 18.9213 4.27285 17.8515 5.58008 17.8515H16.9179C18.2258 17.8515 19.2949 18.9121 19.2949 20.2285V44.2617C19.2949 45.5696 18.2344 46.6386 16.9179 46.6386H5.58008C4.27223 46.6386 3.20313 45.5782 3.20313 44.2617V20.2285Z" fill="#4478D1" stroke="#4478D1" stroke-width="0.5"/>
<path d="M1.97656 23.7109H20.5312C21.2064 23.7109 21.7578 23.1595 21.7578 22.4843C21.7578 21.8091 21.2064 21.2578 20.5312 21.2578H1.97656C1.30141 21.2578 0.75 21.8091 0.75 22.4843C0.75 23.1595 1.30137 23.7109 1.97656 23.7109Z" fill="#4478D1" stroke="#4478D1" stroke-width="0.5"/>
<path d="M1.97656 43.2423H20.5312C21.2064 43.2423 21.7578 42.6908 21.7578 42.0157C21.7578 41.3405 21.2064 40.7891 20.5312 40.7891H1.97656C1.30137 40.7891 0.75 41.3405 0.75 42.0157C0.75 42.6908 1.30137 43.2423 1.97656 43.2423Z" fill="#4478D1" stroke="#4478D1" stroke-width="0.5"/>
<path d="M32.9238 34.4531H44.2715C46.9291 34.4531 49.1018 32.2805 49.0919 29.6128C49.0919 29.6126 49.0919 29.6124 49.0919 29.6123L49.0919 5.58008C49.0919 2.92282 46.9295 0.75 44.2618 0.75H32.9238C30.2666 0.75 28.0938 2.91236 28.0938 5.58008V29.623C28.0938 32.2803 30.2561 34.4531 32.9238 34.4531ZM30.5469 5.58008C30.5469 4.27285 31.6166 3.20313 32.9238 3.20313H44.2618C45.5696 3.20313 46.6387 4.26367 46.6387 5.58008V29.6132C46.6387 30.9212 45.5782 31.9902 44.2618 31.9902H32.9238C31.616 31.9902 30.5469 30.9297 30.5469 29.6132V5.58008Z" fill="#4478D1" stroke="#4478D1" stroke-width="0.5"/>
<path d="M29.3204 9.06249H47.8751C48.5502 9.06249 49.1015 8.5111 49.1015 7.83594C49.1015 7.16077 48.5502 6.60938 47.8751 6.60938H29.3204C28.6452 6.60938 28.0938 7.16074 28.0938 7.83594C28.0938 8.51113 28.6452 9.06249 29.3204 9.06249Z" fill="#4478D1" stroke="#4478D1" stroke-width="0.5"/>
<path d="M29.3204 28.5937H47.8751C48.5502 28.5937 49.1015 28.0424 49.1015 27.3672C49.1015 26.692 48.5502 26.1406 47.8751 26.1406H29.3204C28.6452 26.1406 28.0938 26.6919 28.0938 27.3672C28.0938 28.0424 28.6452 28.5937 29.3204 28.5937Z" fill="#4478D1" stroke="#4478D1" stroke-width="0.5"/>
<path d="M13.6953 34.4531H21.1953C23.6576 34.4531 25.6641 32.4467 25.6641 29.9843V21.83C25.6641 20.7181 26.5678 19.8144 27.6797 19.8144H40.0625C40.7377 19.8144 41.289 19.2631 41.289 18.5879C41.289 17.9127 40.7377 17.3613 40.0625 17.3613H27.6797C25.2174 17.3613 23.2109 19.3678 23.2109 21.83V29.9843C23.2109 31.0963 22.3073 32 21.1953 32H13.6953C13.0202 32 12.4688 32.5513 12.4688 33.2265C12.4688 33.9017 13.0202 34.4531 13.6953 34.4531Z" fill="#4478D1" stroke="#4478D1" stroke-width="0.5"/>
<path d="M38.9702 15.7748L38.9702 15.7748C38.4918 15.2964 37.7182 15.2964 37.2398 15.7748C36.7612 16.2534 36.7612 17.0269 37.2398 17.5054C37.2398 17.5054 37.2398 17.5054 37.2398 17.5054L38.3227 18.5884L37.2398 19.6713C36.7612 20.1499 36.7612 20.9234 37.2398 21.4019C37.7166 21.8787 38.4999 21.8819 38.9702 21.4116L40.9233 19.4585C40.9233 19.4585 40.9233 19.4585 40.9233 19.4585C41.4018 18.9801 41.4018 18.2064 40.9233 17.728L38.9702 15.7748Z" fill="#4478D1" stroke="#4478D1" stroke-width="0.5"/>
<path d="M6.60938 33.2265C6.60938 35.5228 8.46934 37.3828 10.7656 37.3828C13.0619 37.3828 14.9218 35.5228 14.9218 33.2265C14.9218 30.9302 13.0619 29.0703 10.7656 29.0703C8.46935 29.0703 6.60938 30.9302 6.60938 33.2265ZM9.06249 33.2265C9.06249 32.2904 9.82947 31.5234 10.7656 31.5234C11.7018 31.5234 12.4687 32.2904 12.4687 33.2265C12.4687 34.1626 11.7018 34.9296 10.7656 34.9296C9.82947 34.9296 9.06249 34.1626 9.06249 33.2265Z" fill="#4478D1" stroke="#4478D1" stroke-width="0.5"/>
</svg>
