<?xml version="1.0" encoding="UTF-8"?>
<svg xmlns="http://www.w3.org/2000/svg" width="48" height="48" viewBox="0 0 48 48" fill="none">
  <path d="M36.2109 47.4375H11.7891C5.59844 47.4375 0.5625 42.4016 0.5625 36.2125V11.7875C0.5625 5.59844 5.59844 0.5625 11.7891 0.5625H36.2125C42.4016 0.5625 47.4375 5.59844 47.4375 11.7875V36.2125C47.4375 42.4016 42.4016 47.4375 36.2109 47.4375ZM11.7891 3.6875C7.32188 3.6875 3.6875 7.32188 3.6875 11.7875V36.2125C3.6875 40.6781 7.32188 44.3125 11.7891 44.3125H36.2125C40.6781 44.3125 44.3125 40.6781 44.3125 36.2125V11.7875C44.3125 7.32188 40.6781 3.6875 36.2109 3.6875H11.7891Z" fill="#4478D1"></path>
  <path d="M23.2188 16.1875C22.3547 16.1875 21.6562 16.8875 21.6562 17.75V24C21.6562 26.5844 19.9047 28.6875 17.75 28.6875C15.5953 28.6875 13.8438 26.5844 13.8438 24V17.75C13.8438 16.8922 13.1391 16.1875 12.2812 16.1875C11.4234 16.1875 10.7188 16.8922 10.7188 17.75V24C10.7188 28.3078 13.8734 31.8125 17.75 31.8125C21.6266 31.8125 24.7812 28.3078 24.7812 24V17.75C24.7812 16.8875 24.0828 16.1875 23.2188 16.1875Z" fill="#4478D1"></path>
  <path d="M33.6539 23.9999L37.0429 18.578C37.5007 17.8468 37.2773 16.8827 36.5476 16.4249C35.8132 15.9671 34.8507 16.1921 34.3945 16.9218L31.8117 21.053L29.2304 16.9233C28.7742 16.1905 27.8117 15.9671 27.0773 16.4265C26.346 16.8843 26.1242 17.8483 26.582 18.5796L29.9695 23.9999L26.5804 29.4218C26.1257 30.1483 26.3492 31.1218 27.0757 31.5749C27.8023 32.0296 28.7742 31.8046 29.2289 31.078L31.8117 26.9468L34.3929 31.0765C34.8476 31.803 35.8195 32.028 36.546 31.5733C37.2726 31.1187 37.496 30.1468 37.0414 29.4202L33.6539 23.9999Z" fill="#4478D1"></path>
</svg>
