<?xml version="1.0" encoding="UTF-8"?>
<svg xmlns="http://www.w3.org/2000/svg" width="50" height="46" viewBox="0 0 50 46" fill="none">
  <path d="M0 0.875732V45.1244H50V0.875732H0ZM33.1446 3.80542L27.6322 10.4564H2.92969V3.80542H33.1446ZM47.0703 42.1947H2.92969V13.3861H29.0092L36.9497 3.80542H47.0703V42.1947Z" fill="#4478D1"></path>
  <path d="M6.2832 5.67017H9.21289V8.61616H6.2832V5.67017Z" fill="#4478D1"></path>
  <path d="M11.6855 5.67017H14.6152V8.61616H11.6855V5.67017Z" fill="#4478D1"></path>
  <path d="M17.0898 5.67017H20.0195V8.61616H17.0898V5.67017Z" fill="#4478D1"></path>
  <path d="M24.4922 29.7871C24.4922 31.1603 23.3751 32.2773 22.002 32.2773C20.6288 32.2773 19.5117 31.1603 19.5117 29.7871V20.6562H16.582V29.7871C16.582 32.7757 19.0134 35.207 22.002 35.207C24.9905 35.207 27.4219 32.7757 27.4219 29.7871V20.6562H24.4922V29.7871Z" fill="#4478D1"></path>
  <path d="M30.4883 20.6562H33.418V35.1419H30.4883V20.6562Z" fill="#4478D1"></path>
</svg>
