<?xml version="1.0" encoding="UTF-8"?>
<svg xmlns="http://www.w3.org/2000/svg" width="45" height="45" viewBox="0 0 45 45" fill="none">
  <g clip-path="url(#clip0_938_1747)">
    <path d="M41.7188 11.25H3.28125C1.47188 11.25 0 9.77812 0 7.96875V3.28125C0 1.47188 1.47188 0 3.28125 0H41.7188C43.5281 0 45 1.47188 45 3.28125V7.96875C45 9.77812 43.5281 11.25 41.7188 11.25ZM3.28125 2.8125C3.0225 2.8125 2.8125 3.0225 2.8125 3.28125V7.96875C2.8125 8.2275 3.0225 8.4375 3.28125 8.4375H41.7188C41.9775 8.4375 42.1875 8.2275 42.1875 7.96875V3.28125C42.1875 3.0225 41.9775 2.8125 41.7188 2.8125H3.28125Z" fill="#4478D1"></path>
    <path d="M41.7188 45H18.2813C16.4719 45 15 43.5281 15 41.7188V18.2813C15 16.4719 16.4719 15 18.2813 15H41.7188C43.5281 15 45 16.4719 45 18.2813V41.7188C45 43.5281 43.5281 45 41.7188 45ZM18.2813 17.8125C18.0225 17.8125 17.8125 18.0225 17.8125 18.2813V41.7188C17.8125 41.9775 18.0225 42.1875 18.2813 42.1875H41.7188C41.9775 42.1875 42.1875 41.9775 42.1875 41.7188V18.2813C42.1875 18.0225 41.9775 17.8125 41.7188 17.8125H18.2813Z" fill="#4478D1"></path>
    <path d="M5.625 45C2.52375 45 0 42.4762 0 39.375C0 36.2737 2.52375 33.75 5.625 33.75C8.72625 33.75 11.25 36.2737 11.25 39.375C11.25 42.4762 8.72625 45 5.625 45ZM5.625 36.5625C4.07438 36.5625 2.8125 37.8244 2.8125 39.375C2.8125 40.9256 4.07438 42.1875 5.625 42.1875C7.17562 42.1875 8.4375 40.9256 8.4375 39.375C8.4375 37.8244 7.17562 36.5625 5.625 36.5625Z" fill="#4478D1"></path>
    <path d="M9.84375 24.375H1.40625C0.63 24.375 0 23.745 0 22.9688C0 22.1925 0.63 21.5625 1.40625 21.5625H9.84375C10.62 21.5625 11.25 22.1925 11.25 22.9688C11.25 23.745 10.62 24.375 9.84375 24.375Z" fill="#4478D1"></path>
    <path d="M9.84375 18.75H1.40625C0.63 18.75 0 18.12 0 17.3438C0 16.5675 0.63 15.9375 1.40625 15.9375H9.84375C10.62 15.9375 11.25 16.5675 11.25 17.3438C11.25 18.12 10.62 18.75 9.84375 18.75Z" fill="#4478D1"></path>
    <path d="M9.84375 30H1.40625C0.63 30 0 29.37 0 28.5938C0 27.8175 0.63 27.1875 1.40625 27.1875H9.84375C10.62 27.1875 11.25 27.8175 11.25 28.5938C11.25 29.37 10.62 30 9.84375 30Z" fill="#4478D1"></path>
  </g>
  <defs>
    <clipPath id="clip0_938_1747">
      <rect width="45" height="45" fill="white"></rect>
    </clipPath>
  </defs>
</svg>
